<?xml version="1.0" encoding="UTF-8" standalone="no"?>
<!DOCTYPE svg PUBLIC "-//W3C//DTD SVG 1.1//EN" "http://www.w3.org/Graphics/SVG/1.1/DTD/svg11.dtd">
<svg width="100%" height="100%" viewBox="0 0 448 512" version="1.1" xmlns="http://www.w3.org/2000/svg" xmlns:xlink="http://www.w3.org/1999/xlink" xml:space="preserve" xmlns:serif="http://www.serif.com/" style="fill-rule:evenodd;clip-rule:evenodd;stroke-linejoin:round;stroke-miterlimit:2;">
    <path d="M400,32L48,32C21.668,32 -0,53.668 0,80L0,432C0,458.332 21.668,480 48,480L400,480C426.332,480 448,458.332 448,432L448,80C448,53.668 426.332,32 400,32ZM383.61,339.37L368.61,404.37C367.047,411.151 360.959,415.997 354,416C194,416 64,286.29 64,126C64.244,119.122 68.982,113.17 75.63,111.39L140.63,96.39C141.739,96.156 142.867,96.025 144,96C149.899,96.298 155.191,99.786 157.79,105.09L187.79,175.09C188.525,176.977 188.934,178.976 189,181C188.756,185.439 186.78,189.609 183.5,192.61L145.61,223.61C168.563,272.258 207.742,311.437 256.39,334.39L287.39,296.5C290.391,293.22 294.561,291.244 299,291C301.024,291.065 303.023,291.474 304.91,292.21L374.91,322.21C380.217,324.806 383.706,330.099 384,336C383.98,337.133 383.849,338.262 383.61,339.37Z" style="fill:white;fill-rule:nonzero;"/>
</svg>
