<?xml version="1.0" encoding="UTF-8" standalone="no"?>
<!DOCTYPE svg PUBLIC "-//W3C//DTD SVG 1.1//EN" "http://www.w3.org/Graphics/SVG/1.1/DTD/svg11.dtd">
<svg width="100%" height="100%" viewBox="0 0 1753 964" version="1.1" xmlns="http://www.w3.org/2000/svg" xmlns:xlink="http://www.w3.org/1999/xlink" xml:space="preserve" xmlns:serif="http://www.serif.com/" style="fill-rule:evenodd;clip-rule:evenodd;stroke-linejoin:round;stroke-miterlimit:2;">
    <g transform="matrix(1,0,0,1,-790.174,-53.5134)">
        <g id="surface1">
            <g transform="matrix(1,0,0,1,-555.642,-57.802)">
                <path d="M2641.47,1030.87C2641.47,1034.55 2640.81,1037.75 2639.45,1040.44C2638.09,1043.14 2636.51,1045.35 2634.65,1047.08C2632.83,1048.79 2630.73,1050.02 2628.41,1050.77C2626.06,1051.49 2624.04,1051.86 2622.31,1051.86C2617.67,1051.86 2614.34,1050.5 2612.36,1047.81C2610.41,1045.11 2609.43,1042.04 2609.43,1038.6C2609.43,1036.39 2609.74,1034.07 2610.35,1031.61C2610.96,1029.14 2612.01,1026.88 2613.48,1024.8C2614.95,1022.7 2616.92,1021.05 2619.38,1019.82C2621.83,1018.59 2624.79,1017.98 2628.21,1017.98C2629.19,1017.98 2630.42,1018.09 2631.91,1018.33C2633.38,1018.59 2634.85,1019.14 2636.32,1020C2637.78,1020.85 2639.03,1022.14 2640,1023.88C2640.98,1025.59 2641.47,1027.93 2641.47,1030.87ZM2772.97,1021.66C2772.97,1027.29 2771.43,1032.84 2768.36,1038.23C2765.3,1043.64 2761.11,1048.55 2755.85,1052.96C2750.57,1057.38 2744.44,1060.95 2737.42,1063.65C2730.43,1066.34 2723,1067.7 2715.14,1067.7C2707.03,1067.7 2700.52,1065.73 2695.61,1061.81C2690.7,1057.89 2686.96,1053.22 2684.37,1047.81C2681.81,1042.39 2680.08,1037 2679.22,1031.61C2678.37,1026.2 2677.93,1022.14 2677.93,1019.45C2677.93,1009.88 2679.66,999.992 2683.1,989.801C2686.54,979.613 2691.32,970.277 2697.45,961.797C2703.61,953.34 2710.97,946.391 2719.56,940.98C2728.15,935.59 2737.62,932.895 2747.92,932.895C2754.32,932.895 2759.1,934.164 2762.29,936.75C2765.49,939.336 2767.93,942.227 2769.66,945.406C2771.37,949.086 2772.48,953.273 2772.97,957.941C2772.97,959.168 2772.73,961.73 2772.24,965.676C2771.74,969.598 2770.58,973.652 2768.74,977.816C2766.9,982 2764.14,985.746 2760.45,989.055C2756.77,992.367 2751.73,994.031 2745.36,994.031C2742.64,994.031 2740.8,992.672 2739.81,989.977C2739.33,988.75 2739.09,987.281 2739.09,985.551C2739.09,983.84 2739.44,982.242 2740.18,980.773C2740.93,979.305 2741.78,977.816 2742.77,976.348C2743.76,974.879 2744.61,973.277 2745.36,971.57C2746.08,969.84 2746.45,967.996 2746.45,966.047C2746.45,964.559 2746.08,962.914 2745.36,961.074C2744.61,959.234 2742.88,958.313 2740.18,958.313C2737.97,958.313 2734.97,959.344 2731.18,961.426C2727.37,963.527 2723.62,966.836 2719.94,971.371C2716.26,975.91 2713.12,981.695 2710.54,988.707C2707.95,995.695 2706.66,1004.09 2706.66,1013.93C2706.66,1017.11 2706.85,1020.37 2707.23,1023.68C2707.6,1027.01 2708.39,1030.08 2709.62,1032.88C2710.84,1035.71 2712.44,1038.06 2714.41,1039.89C2716.36,1041.73 2719.06,1042.66 2722.5,1042.66C2723.99,1042.66 2725.81,1042.48 2728.04,1042.11C2730.24,1041.73 2732.69,1040.75 2735.41,1039.15C2738.1,1037.55 2740.93,1035.16 2743.87,1031.96C2746.82,1028.79 2749.76,1024.23 2752.72,1018.33C2753.95,1016.12 2755.59,1014.3 2757.69,1012.81C2759.78,1011.34 2761.92,1010.6 2764.14,1010.6C2766.35,1010.6 2768.06,1011.21 2769.29,1012.46C2770.51,1013.69 2771.37,1014.91 2771.87,1016.12C2772.62,1017.85 2772.97,1019.69 2772.97,1021.66ZM2891.96,984.082C2891.96,996.113 2890.22,1006.61 2886.78,1015.57C2883.34,1024.54 2878.81,1032.03 2873.15,1038.06C2867.52,1044.06 2861.19,1048.62 2854.18,1051.68C2847.19,1054.75 2840.13,1056.29 2833.01,1056.29C2823.43,1056.29 2816.07,1053.94 2810.9,1049.3C2805.75,1044.61 2801.94,1039.46 2799.5,1033.81C2796.79,1027.18 2795.19,1019.56 2794.7,1010.97C2794.7,1005.34 2795.32,999.992 2796.54,994.953C2797.77,989.91 2799.24,985.309 2800.97,981.145C2802.92,976.477 2805.14,972.051 2807.59,967.867C2807.59,967.648 2807.22,967.145 2806.49,966.398C2806.23,966.156 2805.99,966.047 2805.75,966.047C2801.83,966.047 2798.76,965.238 2796.54,963.637C2794.33,962.035 2793.24,960.02 2793.24,957.566C2793.24,954.367 2794.51,951.191 2797.09,947.992C2799.68,944.793 2803.12,942.031 2807.41,939.707C2811.71,937.363 2816.49,935.457 2821.77,933.988C2827.05,932.52 2832.29,931.773 2837.43,931.773C2841.84,931.773 2847.14,932.453 2853.28,933.813C2859.41,935.148 2865.35,937.672 2871.14,941.352C2876.9,945.031 2881.81,950.313 2885.86,957.195C2889.92,964.074 2891.96,973.039 2891.96,984.082ZM2862.11,991.816C2861.87,985.684 2860.99,980.293 2859.52,975.625C2858.3,971.438 2856.39,967.758 2853.83,964.559C2851.24,961.379 2847.49,959.781 2842.58,959.781C2841.12,959.781 2839.34,960.637 2837.24,962.344C2835.16,964.074 2833.21,966.66 2831.37,970.078C2829.5,973.52 2827.9,977.816 2826.57,982.988C2825.21,988.137 2824.53,994.031 2824.53,1000.67C2824.53,1002.62 2824.59,1005.27 2824.73,1008.58C2824.86,1011.89 2825.47,1015.27 2826.57,1018.71C2827.66,1022.14 2829.39,1025.11 2831.72,1027.56C2834.06,1030.01 2837.43,1031.24 2841.84,1031.24C2846.77,1031.24 2850.56,1029.2 2853.28,1025.15C2855.97,1021.12 2857.92,1016.62 2859.17,1011.72C2860.64,1005.82 2861.61,999.18 2862.11,991.816ZM3097.85,1059.59C3097.85,1062.05 3097.24,1064.19 3096.01,1066.04C3094.78,1067.88 3093.32,1069.41 3091.58,1070.64C3089.88,1071.87 3088.01,1072.79 3086.06,1073.4C3084.09,1074.02 3082.49,1074.34 3081.29,1074.34C3075.13,1074.34 3070.22,1072.44 3066.54,1068.62C3062.86,1064.81 3060.09,1060.04 3058.25,1054.25C3056.41,1048.48 3055.19,1042.22 3054.57,1035.47C3053.96,1028.72 3053.65,1022.39 3053.65,1016.49C3053.65,1011.58 3053.78,1007.48 3054.03,1004.16C3054.27,1000.84 3054.38,998.215 3054.38,996.242C3054.38,992.32 3054.03,989.867 3053.28,988.883C3052.54,987.895 3051.57,987.414 3050.32,987.414C3049.36,987.414 3048.44,987.766 3047.58,988.508C3046.71,989.23 3045.92,989.977 3045.17,990.723C3044.19,991.707 3043.33,992.672 3042.61,993.656C3039.89,997.098 3037.13,1001.53 3034.3,1006.91C3031.5,1012.33 3028.72,1017.48 3026.02,1022.39C3023.08,1028.28 3020.13,1034.44 3017.19,1040.82C3015.22,1044.26 3013.14,1047.5 3010.92,1050.57C3008.71,1053.64 3005.51,1055.17 3001.35,1055.17C2996.44,1055.17 2992.62,1052.71 2989.93,1047.81C2987.21,1042.9 2985.2,1037.24 2983.84,1030.87C2982.5,1024.49 2981.58,1018.22 2981.08,1012.09C2980.59,1005.95 2980.11,1001.77 2979.61,999.555C2978.86,996.113 2977.53,994.402 2975.55,994.402C2975.07,994.402 2974.52,994.535 2973.91,994.777C2973.28,995.016 2972.73,995.258 2972.24,995.5C2971.52,996.004 2971.02,996.352 2970.78,996.617C2966.35,1001.02 2962.36,1006.81 2958.79,1013.93C2955.24,1021.05 2952.11,1028.04 2949.41,1034.92C2946.45,1043.03 2943.76,1051.49 2941.3,1060.34C2940.08,1064.75 2938.48,1067.33 2936.53,1068.07C2934.55,1068.8 2932.34,1069.17 2929.89,1069.17C2926.93,1069.17 2924.5,1068.56 2922.52,1067.33C2920.55,1066.11 2919.02,1064.64 2917.92,1062.9C2916.8,1061.19 2916.08,1059.36 2915.71,1057.38C2915.34,1055.43 2915.16,1053.7 2915.16,1052.23C2915.16,1047.32 2915.51,1042.79 2916.26,1038.6C2916.5,1036.15 2916.87,1033.69 2917.37,1031.24C2917.86,1027.06 2918.23,1023.07 2918.47,1019.25C2918.71,1015.46 2918.84,1011.85 2918.84,1008.41C2918.84,999.816 2918.27,992.367 2917.18,986.121C2916.08,979.852 2914.9,974.637 2913.67,970.453C2912.2,965.543 2910.6,961.379 2908.89,957.941C2908.65,957.699 2908.39,957.195 2908.15,956.473C2907.91,955.727 2907.78,954.367 2907.78,952.418C2907.78,950.93 2908.15,949.285 2908.89,947.441C2909.64,945.602 2910.6,943.871 2911.83,942.273C2913.06,940.672 2914.66,939.27 2916.63,938.043C2918.58,936.816 2920.79,936.203 2923.25,936.203C2925.7,936.203 2928.53,937.254 2931.73,939.336C2934.93,941.418 2937.49,946.148 2939.46,953.512C2939.94,955.969 2940.56,959.035 2941.3,962.719C2941.79,966.156 2942.22,970.387 2942.6,975.426C2942.97,980.465 2943.14,986.535 2943.14,993.656C2943.14,993.922 2943.28,994.16 2943.52,994.402C2943.52,994.887 2943.76,995.125 2944.26,995.125C2944.48,995.125 2944.85,994.777 2945.36,994.031C2946.08,992.32 2947.68,989.297 2950.13,985.004C2952.59,980.707 2955.72,976.238 2959.54,971.57C2963.35,966.902 2967.71,962.781 2972.62,959.234C2977.53,955.66 2982.68,953.887 2988.09,953.887C2993,953.887 2996.37,955.527 2998.21,958.859C3000.05,962.168 3001.59,969.227 3002.81,980.027C3003.06,984.695 3003.56,988.75 3004.28,992.191C3004.79,995.125 3005.33,997.844 3005.95,1000.3C3006.56,1002.75 3007.35,1003.98 3008.34,1003.98C3008.84,1003.98 3009.56,1003.48 3010.55,1002.49C3012.28,1000.78 3014.12,997.473 3016.07,992.563C3016.31,991.578 3017.74,988.379 3020.32,982.988C3022.89,977.574 3026.26,971.879 3030.45,965.852C3034.61,959.848 3039.41,954.434 3044.8,949.637C3050.21,944.855 3055.98,942.469 3062.11,942.469C3066.3,942.469 3069.67,943.566 3072.26,945.777C3074.82,947.992 3076.79,950.754 3078.15,954.063C3079.49,957.391 3080.36,961.141 3080.72,965.305C3081.09,969.465 3081.29,973.41 3081.29,977.094C3081.29,997.953 3081.88,1014.72 3083.1,1027.36C3084.35,1040 3088.14,1048.79 3094.52,1053.7C3095.02,1053.94 3095.53,1054.44 3096.01,1055.17C3096.49,1055.67 3096.93,1056.29 3097.3,1057.03C3097.65,1057.75 3097.85,1058.61 3097.85,1059.59Z"/>
            </g>
            <g transform="matrix(1,0,0,1,-1178.98,-143.474)">
                <path d="M2883.25,375.395C2883.25,378.324 2882.99,381.965 2882.51,386.367C2882.01,390.742 2880.8,394.883 2878.85,398.785C2876.9,402.688 2874.09,405.973 2870.45,408.66C2866.78,411.352 2861.79,412.684 2855.46,412.684C2853.51,412.684 2847.89,413.039 2838.63,413.777C2829.38,414.516 2818.65,415.848 2806.46,417.801C2794.28,419.75 2781.6,422.438 2768.44,425.844C2755.28,429.27 2743.57,433.887 2733.34,439.738C2733.34,439.738 2733.1,440.238 2732.6,441.191C2732.6,442.164 2733.46,443.023 2735.17,443.762C2736.86,444.496 2738.81,445.473 2741.03,446.688C2743.22,447.898 2745.29,449.258 2747.24,450.707C2749.19,452.184 2750.4,454.109 2750.9,456.563C2749.9,465.344 2748.33,476.43 2746.14,489.828C2743.93,503.223 2741.74,518.477 2739.55,535.535C2737.36,552.598 2735.41,570.871 2733.7,590.359C2731.99,609.871 2731.15,629.859 2731.15,650.324C2731.15,670.313 2732.25,689.207 2734.44,707.004C2736.63,724.805 2740.65,740.27 2746.5,753.43C2747,753.93 2747.48,754.902 2747.98,756.355C2748.93,759.281 2749.43,761.973 2749.43,764.398C2749.43,765.375 2749.07,767.445 2748.33,770.609C2747.59,773.773 2746,777.082 2743.57,780.484C2741.15,783.887 2737.48,786.957 2732.6,789.621C2727.73,792.309 2721.16,793.645 2712.85,793.645C2704.57,793.645 2697.39,791.215 2691.3,786.34C2685.2,781.461 2680.21,775.367 2676.3,768.063C2672.4,760.734 2669.36,752.691 2667.17,743.934C2664.98,735.152 2663.26,726.637 2662.05,718.332C2660.84,710.051 2660.1,702.746 2659.86,696.391C2659.6,690.063 2659.48,685.684 2659.48,683.234C2659.48,660.82 2660.96,636.309 2663.88,609.754C2666.79,583.176 2670.21,558.191 2674.12,534.801C2678.49,507.98 2683.37,480.93 2688.73,453.637C2688.73,451.184 2687.75,449.969 2685.8,449.969C2677.04,451.922 2669.36,454.254 2662.77,456.918C2656.2,459.605 2650.11,462.297 2644.49,464.961C2638.9,467.648 2633.64,469.84 2628.79,471.551C2623.91,473.242 2619.27,474.098 2614.89,474.098C2606.59,474.098 2600.76,470.934 2597.33,464.605C2595.38,462.152 2594.16,458.988 2593.66,455.086C2593.66,449.73 2595.38,442.309 2598.8,432.789C2602.21,423.297 2611.23,414.395 2625.86,406.117C2647.3,394.41 2669.71,384.176 2693.13,375.395C2713.12,367.59 2735.41,360.523 2760.04,354.195C2784.64,347.84 2809.39,344.676 2834.26,344.676C2837.66,344.676 2842.18,344.914 2847.77,345.414C2853.39,345.891 2858.74,347.246 2863.86,349.438C2868.97,351.625 2873.49,354.789 2877.4,358.93C2881.3,363.07 2883.25,368.566 2883.25,375.395ZM3005.34,626.195C3005.34,630.098 3004.01,633.145 3001.32,635.336C2998.63,637.523 2995.61,639.117 2992.18,640.094C2988.28,641.547 2983.9,642.281 2979.03,642.281C2969.27,642.281 2961.85,640.711 2956.73,637.523C2951.61,634.383 2947.59,630.836 2944.67,626.934C2941.74,623.031 2939.55,619.484 2938.07,616.32C2936.62,613.156 2934.91,611.586 2932.96,611.586C2930.03,611.586 2925.27,616.703 2918.71,626.934C2912.11,637.164 2905.43,650.324 2898.6,666.41C2891.77,682.496 2885.8,700.297 2880.68,719.809C2875.56,739.297 2872.99,758.309 2872.99,776.844C2872.99,785.125 2870.69,790.715 2866.05,793.645C2861.43,796.57 2855.7,798.047 2848.87,798.047C2841.06,798.047 2835.11,794.617 2830.95,787.789C2826.81,780.984 2823.76,772.441 2821.81,762.211C2819.86,751.977 2818.65,740.508 2818.17,727.848C2817.67,715.164 2817.43,702.984 2817.43,691.277C2817.43,671.789 2818.03,652.516 2819.24,633.504C2820.48,614.488 2821.81,598.164 2823.29,584.531C2824.74,573.301 2826.69,564.043 2829.12,556.738C2831.57,549.41 2834.61,543.816 2838.25,539.914C2841.92,536.012 2846.18,533.203 2851.06,531.516C2855.93,529.805 2861.79,528.945 2868.62,528.945C2871.04,529.445 2873.23,530.422 2875.18,531.871C2876.66,532.848 2878.11,534.68 2879.59,537.348C2881.04,540.035 2881.78,543.578 2881.78,547.957C2881.78,550.887 2881.54,553.074 2881.04,554.551C2880.06,561.379 2878.85,568.422 2877.4,575.75C2876.42,582.078 2875.3,589.266 2874.09,597.309C2872.88,605.352 2872.02,613.777 2871.54,622.555C2871.54,623.508 2871.78,624.484 2872.28,625.484C2872.76,626.934 2873.73,627.672 2875.18,627.672C2876.66,627.672 2877.64,626.434 2878.11,624.008C2881.04,616.703 2884.44,608.66 2888.34,599.879C2891.77,592.551 2895.67,584.41 2900.05,575.395C2904.45,566.375 2909.81,557.477 2916.14,548.695C2919.06,544.293 2921.01,540.535 2921.99,537.348C2922.96,534.18 2925.89,528.945 2930.77,521.641C2934.17,517.738 2938.07,514.313 2942.45,511.41C2946.36,508.957 2950.52,506.531 2954.9,504.078C2959.28,501.652 2964.15,500.438 2969.51,500.438C2973.41,500.438 2977.07,501.652 2980.48,504.078C2983.9,506.531 2985.62,510.434 2985.62,515.785C2985.62,522.117 2985,528.328 2983.78,534.441C2982.57,540.535 2981.95,547.719 2981.95,556C2981.95,569.66 2983.17,580.367 2985.62,588.172C2988.04,595.977 2990.73,602.188 2993.64,606.828C2996.59,611.445 2999.25,615.109 3001.7,617.797C3004.13,620.461 3005.34,623.27 3005.34,626.195ZM3115.78,423.652C3115.78,427.055 3114.92,431.695 3113.21,437.551C3111.49,443.402 3108.71,449.258 3104.81,455.086C3100.9,460.941 3095.67,466.055 3089.08,470.457C3082.49,474.836 3074.33,477.023 3064.59,477.023C3055.31,477.023 3049.1,474.336 3045.94,468.98C3042.77,463.629 3041.18,457.773 3041.18,451.445C3041.18,446.066 3042.51,440.477 3045.2,434.621C3047.89,428.77 3051.65,423.297 3056.53,418.156C3061.4,413.039 3067.14,408.898 3073.73,405.734C3080.3,402.57 3087.25,400.977 3094.55,400.977C3097.98,400.977 3102.36,402.215 3107.71,404.641C3113.09,407.09 3115.78,413.422 3115.78,423.652ZM3093.1,558.93C3092.6,561.379 3091.65,566.375 3090.17,573.918C3088.72,581.484 3087.25,590.48 3085.79,600.973C3084.32,611.445 3082.99,623.27 3081.77,636.43C3080.54,649.609 3079.94,663.246 3079.94,677.379C3079.94,688.109 3080.42,698.223 3081.39,707.742C3082.37,717.238 3083.34,725.398 3084.32,732.227C3085.79,741.008 3087.25,748.813 3088.72,755.617C3087.72,762.445 3084.44,766.969 3078.85,769.156C3073.23,771.348 3068.47,772.441 3064.59,772.441C3060.19,772.441 3056.05,771.465 3052.15,769.516C3050.2,768.539 3048.72,767.563 3047.77,766.59C3039.47,756.832 3033.75,743.195 3030.59,725.637C3027.4,708.098 3025.83,689.324 3025.83,669.336C3025.83,654.227 3026.43,639.355 3027.66,624.746C3028.88,610.109 3030.21,596.953 3031.68,585.246C3033.64,571.609 3035.59,558.691 3037.51,546.508C3037.51,544.555 3038.49,542.605 3040.44,540.652C3041.92,539.18 3044.34,537.844 3047.77,536.633C3051.17,535.418 3055.81,534.801 3061.64,534.801C3064.09,534.801 3067.14,535.156 3070.8,535.895C3074.44,536.633 3077.87,537.844 3081.04,539.559C3084.2,541.246 3087.01,543.699 3089.44,546.863C3091.89,550.027 3093.1,554.051 3093.1,558.93ZM3404.6,598.43C3404.6,623.77 3398.63,647.039 3386.68,668.242C3374.74,689.445 3359.87,707.98 3342.09,723.828C3324.29,739.652 3305.02,752.453 3284.32,762.211C3263.59,771.965 3244.46,778.297 3226.92,781.223C3225.95,781.223 3224.71,781.961 3223.26,783.41C3222.76,784.387 3222.28,785.125 3221.81,785.602C3220.33,814.367 3219.59,844.852 3219.59,877.02C3219.59,888.227 3220.09,898.938 3221.07,909.191C3222.05,918.449 3223.14,927.941 3224.35,937.699C3225.57,947.453 3227.4,955.734 3229.83,962.563C3232.75,970.844 3234.7,977.199 3235.68,981.578C3236.66,985.957 3237.16,989.129 3237.16,991.082C3237.16,1000.83 3233.85,1007.53 3227.28,1011.19C3220.69,1014.85 3215.22,1016.67 3210.81,1016.67C3206.94,1016.67 3204.25,1016.43 3202.77,1015.94C3201.32,1015.94 3200.34,1015.7 3199.87,1015.21C3191.56,1012.28 3185.23,1005.34 3180.86,994.367C3176.45,983.402 3173.29,971.82 3171.34,959.637C3169.39,947.453 3168.17,936.246 3167.67,925.992C3167.2,915.758 3166.96,909.668 3166.96,907.715L3166.96,864.219C3166.96,851.773 3167.08,840.805 3167.32,831.313C3167.55,821.816 3167.82,813.395 3168.05,806.086C3168.29,798.758 3168.41,791.691 3168.41,784.887C3168.41,784.387 3168.17,783.887 3167.67,783.41C3166.72,782.434 3165.48,781.699 3164.03,781.223C3154.28,779.27 3145.73,776.105 3138.43,771.703C3132.1,768.301 3126.37,763.66 3121.25,757.832C3116.13,751.977 3113.56,744.91 3113.56,736.605C3113.56,728.824 3116.01,722.973 3120.89,719.07C3125.77,715.164 3130.15,713.215 3134.05,713.215C3139.4,713.215 3144.9,714.93 3150.49,718.332C3156.11,721.758 3161.34,723.445 3166.22,723.445C3168.17,723.445 3169.62,722.734 3170.6,721.258C3171.1,720.758 3171.34,720.047 3171.34,719.07C3173.76,684.445 3176.69,654.965 3180.12,630.598C3183.52,606.211 3186.95,585.984 3190.35,569.898C3193.75,551.359 3197.42,535.773 3201.32,523.094C3202.77,519.191 3204.98,515.551 3207.91,512.121C3210.34,509.695 3213.74,507.27 3218.14,504.816C3222.52,502.391 3228.14,501.152 3234.94,501.152C3238.37,501.152 3242.27,501.773 3246.65,502.984C3251.05,504.199 3253.24,508.219 3253.24,515.051C3253.24,516.023 3252.38,520.664 3250.67,528.945C3248.98,537.227 3247.15,546.625 3245.2,557.098C3243.25,567.59 3241.41,577.82 3239.7,587.816C3238.01,597.809 3237.16,604.996 3237.16,609.371C3237.16,611.324 3237.63,612.301 3238.61,612.301C3239.11,612.301 3240.32,611.086 3242.27,608.66C3251.05,596.953 3261.76,586.723 3274.44,577.941C3284.67,570.137 3297.36,562.949 3312.47,556.359C3327.58,549.789 3344.64,546.508 3363.65,546.508C3371.45,547.461 3378.28,550.148 3384.11,554.551C3389.49,558.453 3394.23,563.805 3398.39,570.637C3402.53,577.465 3404.6,586.723 3404.6,598.43ZM3347.56,621.082C3347.56,617.18 3346.83,614.016 3345.38,611.586C3343.9,609.137 3342.21,607.445 3340.26,606.445C3338.31,604.996 3335.86,604.258 3332.93,604.258C3320.75,604.258 3308.21,608.898 3295.29,618.152C3282.37,627.41 3270.66,638.379 3260.19,651.063C3249.69,663.746 3241.18,676.664 3234.59,689.824C3228.02,702.984 3224.71,713.453 3224.71,721.258C3224.71,724.184 3225.45,725.898 3226.92,726.375C3227.88,726.875 3228.85,727.113 3229.83,727.113C3243.01,727.113 3256.52,723.211 3270.42,715.402C3284.32,707.621 3296.98,698.105 3308.45,686.898C3319.89,675.691 3329.29,664.102 3336.59,652.156C3343.9,640.211 3347.56,629.859 3347.56,621.082Z"/>
            </g>
            <g transform="matrix(1.67676,0,0,1.21709,-1255.12,52.7015)">
                <path d="M2043.4,36.711C2041.25,14.988 2019.01,2.461 1993.64,0.809C1975.06,-0.031 1956.41,2.941 1938.48,7.789C1936.44,8.34 1917.24,15.441 1914.6,15.98C1965.15,5.988 1992.01,13.398 1998.74,14.641C2007.83,16.16 2023.41,24.699 2024.69,36.578C2025.33,40.809 2024.09,50.691 2023.02,53.559C2027.53,56.059 2032.9,58.141 2038.59,61.34C2056.54,43.41 2091.01,25.359 2118.48,44.77L2119.04,44.461C2097.79,26.891 2083.97,22.621 2067.9,25.84C2059.28,27.57 2050.9,31.219 2043.4,36.711Z" style="fill:rgb(0,157,224);"/>
            </g>
            <g transform="matrix(1.20618,0,0,1.65092,-429.22,-43.558)">
                <path d="M2114.5,173.316C2110.36,131.234 2067.25,106.992 2018.15,103.813C1982.13,102.152 1945.99,107.895 1911.31,117.313C1907.33,118.395 1870.15,132.137 1864.99,133.156C1962.93,113.813 2014.99,128.176 2027.99,130.574C2045.63,133.516 2075.77,150.074 2078.25,173.098C2079.49,181.277 2077.11,200.398 2075.03,205.957C2083.78,210.797 2094.16,214.84 2105.2,221.039C2139.96,186.297 2206.72,151.336 2259.94,188.957L2261.04,188.355C2219.88,154.297 2193.1,146.035 2161.98,152.254C2145.26,155.617 2129.06,162.695 2114.5,173.316Z" style="fill:rgb(0,157,224);"/>
            </g>
            <g transform="matrix(1,0,0,1,-1052.45,-30.75)">
                <path d="M2182.69,433.172C2182.69,438.102 2181.6,446.629 2179.4,458.754C2177.22,470.863 2174.65,485.898 2171.72,503.859C2168.8,521.805 2166.23,542.348 2164.05,565.457C2161.85,588.563 2160.74,613.598 2160.74,640.523C2160.74,659.379 2161.73,675.523 2163.69,688.996C2165.63,702.469 2167.94,714.141 2170.63,723.992C2173.31,733.883 2175.63,742.066 2177.58,748.574C2179.52,755.082 2180.51,760.59 2180.51,765.063C2180.51,774.5 2176.83,780.898 2169.52,784.262C2162.22,787.625 2155.87,789.301 2150.51,789.301C2137.34,789.301 2126.75,785.609 2118.71,778.207C2110.66,770.789 2104.44,761.027 2100.06,748.918C2095.67,736.793 2092.75,722.883 2091.27,707.176C2089.82,691.469 2089.09,675.086 2089.09,658.031C2089.09,643.672 2089.46,629.98 2090.18,616.965C2090.91,603.945 2091.77,592.273 2092.75,581.945C2094.2,570.273 2095.67,558.84 2097.13,547.621C2097.62,543.129 2096.64,540.875 2094.2,540.875C2092.75,540.875 2091.04,541.785 2089.09,543.566L2086.89,545.602C2074.71,563.547 2063.62,577.129 2053.62,586.328C2043.62,595.527 2034.97,602.363 2027.66,606.855C2018.88,611.801 2011.08,614.711 2004.26,615.617C1994.99,615.617 1986.7,611.234 1979.39,602.492C1972.08,593.727 1965.74,583.965 1960.37,573.203C1954.05,560.641 1948.43,546.277 1943.56,530.113C1942.1,526.078 1940.63,524.059 1939.17,524.059C1935.76,524.059 1932.7,527.078 1930.03,533.148C1927.34,539.203 1925.16,546.82 1923.45,556.039C1921.74,565.238 1920.16,575.438 1918.68,586.656C1917.23,597.891 1916.14,608.547 1915.41,618.637C1914.67,628.742 1914.19,637.836 1913.94,645.906C1913.7,653.98 1913.58,659.598 1913.58,662.742L1913.58,685.633C1913.58,692.813 1913.81,698.867 1914.3,703.813C1914.79,709.648 1915.28,715.031 1915.78,719.957C1916.25,727.594 1914.67,733.32 1911.01,737.137C1907.36,740.957 1903.58,743.973 1899.69,746.227C1894.32,748.465 1888.7,749.809 1882.87,750.266C1878.47,750.266 1873.96,749.355 1869.32,747.574C1864.71,745.773 1860.43,742.738 1856.54,738.484C1852.63,734.211 1849.34,728.484 1846.67,721.301C1843.98,714.141 1842.63,705.156 1842.63,694.379C1842.63,688.539 1842.89,677.215 1843.36,660.379C1843.85,643.563 1845.32,624.254 1847.76,602.492C1850.2,580.711 1853.62,557.82 1858,533.82C1862.38,509.805 1868.72,487.809 1877.01,467.844C1885.3,447.863 1895.54,431.371 1907.72,418.355C1919.92,405.34 1934.77,398.828 1952.34,398.828C1955.76,398.828 1959.28,399.504 1962.94,400.848C1966.59,402.191 1968.92,405.34 1969.88,410.285C1975.24,432.719 1980.84,452.68 1986.7,470.188C1991.57,485.461 1997.19,499.262 2003.52,511.586C2009.86,523.934 2015.95,530.113 2021.81,530.113C2022.3,530.113 2024.37,529.551 2028.02,528.422C2031.68,527.313 2037.17,523.367 2044.48,516.641C2051.79,509.914 2061.06,499.023 2072.28,483.988C2083.48,468.953 2096.4,447.535 2111.02,419.699C2112.49,416.121 2114.44,412.738 2116.87,409.609C2119.31,407.355 2122.36,405.121 2126.02,402.867C2129.67,400.629 2134.18,399.504 2139.54,399.504C2142.47,399.504 2146.38,399.957 2151.25,400.848C2156.13,401.738 2160.87,403.539 2165.51,406.23C2170.14,408.938 2174.16,412.41 2177.58,416.664C2181,420.938 2182.69,426.43 2182.69,433.172ZM2419.64,589.348C2419.64,596.09 2419.02,603.273 2417.8,610.91C2416.58,618.527 2415.13,627.727 2413.42,638.508C2411.71,649.27 2410.24,662.18 2409.02,677.215C2407.8,692.25 2407.2,710.32 2407.2,731.41C2407.2,773.609 2402.44,810.859 2392.95,843.168C2380.55,885.313 2372.62,918.238 2334.44,945.707C2318.84,956.926 2304.95,962.523 2292.77,962.523C2288.86,962.523 2285.94,961.961 2283.99,960.852C2282.05,959.727 2280.57,958.27 2279.61,956.473C2278.14,954.688 2277.41,952.434 2277.41,949.742C2277.41,946.598 2278.26,943.344 2279.97,939.98C2281.68,936.617 2283.75,933.582 2286.19,930.891C2288.63,927.746 2291.79,924.602 2295.7,921.473C2327.86,891.074 2333.64,859.039 2342.84,818.262C2348.21,794.461 2351.62,771.918 2353.08,750.594C2354.55,729.285 2355.28,711.887 2355.28,698.414C2355.28,695.723 2354.79,694.379 2353.82,694.379C2353.33,694.379 2352.59,694.832 2351.62,695.723L2350.9,696.395C2341.13,713.449 2331.64,726.355 2322.37,735.121C2313.1,743.863 2304.57,750.484 2296.77,754.973C2287.99,759.898 2279.46,762.828 2271.17,763.719C2258.5,763.719 2248.27,759.574 2240.47,751.266C2232.67,742.973 2226.32,732.648 2221.45,720.301C2216.58,707.957 2213.29,694.723 2211.58,680.578C2209.87,666.449 2209.01,653.543 2209.01,641.871C2209.01,605.508 2214.27,577.129 2224.74,556.711C2235.23,536.277 2249.48,526.078 2267.52,526.078C2268.5,526.078 2270.21,526.188 2272.65,526.402C2275.08,526.641 2277.39,527.313 2279.59,528.422C2281.79,529.551 2283.74,531.352 2285.45,533.82C2287.15,536.277 2287.99,539.766 2287.99,544.238C2287.99,549.184 2286.3,555.02 2282.88,561.746C2278.97,569.84 2275.57,578.582 2272.65,588C2270.21,596.09 2267.88,605.617 2265.7,616.617C2263.5,627.617 2262.41,639.18 2262.41,651.289C2262.41,653.98 2262.52,658.254 2262.77,664.086C2263.01,669.922 2263.74,675.867 2264.97,681.922C2266.19,687.996 2268.14,693.27 2270.81,697.738C2273.5,702.23 2277.26,704.484 2282.15,704.484C2285.57,704.484 2289.59,703.25 2294.21,700.777C2298.84,698.305 2304.34,693.27 2310.66,685.633C2317.01,677.996 2324.08,667.234 2331.88,653.305C2339.68,639.398 2348.7,621.219 2358.93,598.781C2361.37,592.055 2364.53,586.219 2368.44,581.273C2371.86,576.781 2376.13,572.637 2381.24,568.82C2386.37,565.004 2392.57,563.094 2399.89,563.094C2401.35,563.094 2403.29,563.328 2405.73,563.766C2408.18,564.219 2410.37,565.238 2412.33,566.801C2414.27,568.367 2415.97,570.945 2417.44,574.547C2418.91,578.129 2419.64,583.074 2419.64,589.348Z" style="fill:rgb(255,187,46);"/>
            </g>
        </g>
    </g>
</svg>
