<?xml version="1.0" encoding="UTF-8"?>
<svg xmlns="http://www.w3.org/2000/svg" xmlns:xlink="http://www.w3.org/1999/xlink" width="3640.3pt" height="1074.4pt" viewBox="0 0 3640.3 1074.4" version="1.1">
<defs>
<clipPath id="clip1">
  <path d="M 2609 931 L 3098 931 L 3098 1074.398438 L 2609 1074.398438 Z M 2609 931 "/>
</clipPath>
<clipPath id="clip2">
  <path d="M 3462 496 L 3640.300781 496 L 3640.300781 592 L 3462 592 Z M 3462 496 "/>
</clipPath>
</defs>
<g id="surface1">
<g clip-path="url(#clip1)" clip-rule="nonzero">
<path style=" stroke:none;fill-rule:evenodd;fill:rgb(6.272888%,16.479492%,51.367188%);fill-opacity:1;" d="M 2641.46875 1030.867188 C 2641.46875 1034.546875 2640.808594 1037.746094 2639.449219 1040.441406 C 2638.089844 1043.136719 2636.511719 1045.351563 2634.648438 1047.082031 C 2632.828125 1048.792969 2630.730469 1050.019531 2628.410156 1050.765625 C 2626.058594 1051.488281 2624.039063 1051.859375 2622.308594 1051.859375 C 2617.671875 1051.859375 2614.339844 1050.5 2612.359375 1047.804688 C 2610.410156 1045.109375 2609.429688 1042.042969 2609.429688 1038.601563 C 2609.429688 1036.390625 2609.738281 1034.066406 2610.351563 1031.613281 C 2610.960938 1029.136719 2612.011719 1026.878906 2613.480469 1024.796875 C 2614.949219 1022.695313 2616.921875 1021.050781 2619.378906 1019.824219 C 2621.828125 1018.59375 2624.789063 1017.980469 2628.210938 1017.980469 C 2629.191406 1017.980469 2630.421875 1018.089844 2631.910156 1018.332031 C 2633.378906 1018.59375 2634.851563 1019.144531 2636.320313 1019.996094 C 2637.78125 1020.851563 2639.03125 1022.144531 2640 1023.875 C 2640.980469 1025.585938 2641.46875 1027.929688 2641.46875 1030.867188 Z M 2772.96875 1021.664063 C 2772.96875 1027.292969 2771.429688 1032.839844 2768.359375 1038.230469 C 2765.300781 1043.644531 2761.109375 1048.550781 2755.851563 1052.957031 C 2750.570313 1057.382813 2744.441406 1060.953125 2737.421875 1063.648438 C 2730.429688 1066.34375 2723 1067.703125 2715.140625 1067.703125 C 2707.03125 1067.703125 2700.519531 1065.730469 2695.609375 1061.808594 C 2690.699219 1057.886719 2686.960938 1053.21875 2684.371094 1047.804688 C 2681.808594 1042.394531 2680.078125 1037.003906 2679.21875 1031.613281 C 2678.371094 1026.199219 2677.929688 1022.144531 2677.929688 1019.449219 C 2677.929688 1009.875 2679.660156 999.992188 2683.101563 989.800781 C 2686.539063 979.613281 2691.320313 970.277344 2697.449219 961.796875 C 2703.609375 953.339844 2710.96875 946.390625 2719.558594 940.980469 C 2728.148438 935.589844 2737.621094 932.894531 2747.921875 932.894531 C 2754.320313 932.894531 2759.101563 934.164063 2762.289063 936.75 C 2765.488281 939.335938 2767.929688 942.226563 2769.660156 945.40625 C 2771.371094 949.085938 2772.480469 953.273438 2772.96875 957.941406 C 2772.96875 959.167969 2772.730469 961.730469 2772.238281 965.675781 C 2771.738281 969.597656 2770.578125 973.652344 2768.738281 977.816406 C 2766.898438 982 2764.140625 985.746094 2760.449219 989.054688 C 2756.769531 992.367188 2751.730469 994.03125 2745.359375 994.03125 C 2742.640625 994.03125 2740.800781 992.671875 2739.808594 989.976563 C 2739.328125 988.75 2739.089844 987.28125 2739.089844 985.550781 C 2739.089844 983.839844 2739.441406 982.242188 2740.179688 980.773438 C 2740.929688 979.304688 2741.78125 977.816406 2742.769531 976.347656 C 2743.761719 974.878906 2744.609375 973.277344 2745.359375 971.570313 C 2746.078125 969.839844 2746.449219 967.996094 2746.449219 966.046875 C 2746.449219 964.558594 2746.078125 962.914063 2745.359375 961.074219 C 2744.609375 959.234375 2742.878906 958.3125 2740.179688 958.3125 C 2737.96875 958.3125 2734.96875 959.34375 2731.179688 961.425781 C 2727.371094 963.527344 2723.621094 966.835938 2719.941406 971.371094 C 2716.261719 975.910156 2713.121094 981.695313 2710.539063 988.707031 C 2707.949219 995.695313 2706.660156 1004.089844 2706.660156 1013.929688 C 2706.660156 1017.105469 2706.851563 1020.371094 2707.230469 1023.679688 C 2707.601563 1027.011719 2708.390625 1030.078125 2709.621094 1032.882813 C 2710.839844 1035.710938 2712.441406 1038.054688 2714.410156 1039.894531 C 2716.359375 1041.734375 2719.058594 1042.65625 2722.5 1042.65625 C 2723.988281 1042.65625 2725.808594 1042.480469 2728.039063 1042.109375 C 2730.238281 1041.734375 2732.691406 1040.75 2735.410156 1039.152344 C 2738.101563 1037.550781 2740.929688 1035.160156 2743.871094 1031.960938 C 2746.820313 1028.785156 2749.761719 1024.226563 2752.71875 1018.332031 C 2753.949219 1016.121094 2755.589844 1014.300781 2757.691406 1012.808594 C 2759.78125 1011.34375 2761.921875 1010.597656 2764.140625 1010.597656 C 2766.351563 1010.597656 2768.058594 1011.210938 2769.289063 1012.460938 C 2770.511719 1013.6875 2771.371094 1014.914063 2771.871094 1016.121094 C 2772.621094 1017.851563 2772.96875 1019.691406 2772.96875 1021.664063 Z M 2891.960938 984.082031 C 2891.960938 996.113281 2890.21875 1006.609375 2886.78125 1015.570313 C 2883.339844 1024.535156 2878.808594 1032.027344 2873.148438 1038.054688 C 2867.519531 1044.058594 2861.191406 1048.617188 2854.179688 1051.683594 C 2847.191406 1054.753906 2840.128906 1056.285156 2833.011719 1056.285156 C 2823.429688 1056.285156 2816.070313 1053.941406 2810.898438 1049.296875 C 2805.75 1044.605469 2801.941406 1039.457031 2799.5 1033.804688 C 2796.789063 1027.183594 2795.191406 1019.558594 2794.699219 1010.96875 C 2794.699219 1005.339844 2795.320313 999.992188 2796.539063 994.953125 C 2797.769531 989.910156 2799.238281 985.308594 2800.96875 981.144531 C 2802.921875 976.476563 2805.140625 972.050781 2807.589844 967.867188 C 2807.589844 967.648438 2807.21875 967.144531 2806.488281 966.398438 C 2806.230469 966.15625 2805.988281 966.046875 2805.75 966.046875 C 2801.828125 966.046875 2798.761719 965.238281 2796.539063 963.636719 C 2794.328125 962.035156 2793.238281 960.019531 2793.238281 957.566406 C 2793.238281 954.367188 2794.511719 951.191406 2797.089844 947.992188 C 2799.679688 944.792969 2803.121094 942.03125 2807.410156 939.707031 C 2811.710938 937.363281 2816.488281 935.457031 2821.769531 933.988281 C 2827.050781 932.519531 2832.289063 931.773438 2837.429688 931.773438 C 2841.839844 931.773438 2847.140625 932.453125 2853.28125 933.8125 C 2859.410156 935.148438 2865.351563 937.671875 2871.140625 941.351563 C 2876.898438 945.03125 2881.808594 950.3125 2885.859375 957.195313 C 2889.921875 964.074219 2891.960938 973.039063 2891.960938 984.082031 Z M 2862.109375 991.816406 C 2861.871094 985.683594 2860.988281 980.292969 2859.519531 975.625 C 2858.300781 971.4375 2856.390625 967.757813 2853.828125 964.558594 C 2851.238281 961.378906 2847.488281 959.78125 2842.578125 959.78125 C 2841.121094 959.78125 2839.339844 960.636719 2837.238281 962.34375 C 2835.160156 964.074219 2833.210938 966.660156 2831.371094 970.078125 C 2829.5 973.519531 2827.898438 977.816406 2826.570313 982.988281 C 2825.210938 988.136719 2824.53125 994.03125 2824.53125 1000.671875 C 2824.53125 1002.621094 2824.589844 1005.273438 2824.730469 1008.582031 C 2824.859375 1011.890625 2825.46875 1015.265625 2826.570313 1018.707031 C 2827.660156 1022.144531 2829.390625 1025.105469 2831.71875 1027.558594 C 2834.058594 1030.011719 2837.429688 1031.238281 2841.839844 1031.238281 C 2846.769531 1031.238281 2850.558594 1029.203125 2853.28125 1025.148438 C 2855.96875 1021.117188 2857.921875 1016.625 2859.171875 1011.714844 C 2860.640625 1005.820313 2861.609375 999.179688 2862.109375 991.816406 Z M 3097.851563 1059.59375 C 3097.851563 1062.050781 3097.238281 1064.195313 3096.011719 1066.039063 C 3094.78125 1067.878906 3093.320313 1069.414063 3091.578125 1070.640625 C 3089.878906 1071.867188 3088.011719 1072.789063 3086.058594 1073.398438 C 3084.089844 1074.015625 3082.488281 1074.34375 3081.289063 1074.34375 C 3075.128906 1074.34375 3070.21875 1072.4375 3066.539063 1068.625 C 3062.859375 1064.8125 3060.089844 1060.035156 3058.25 1054.25 C 3056.410156 1048.484375 3055.191406 1042.21875 3054.570313 1035.46875 C 3053.960938 1028.71875 3053.648438 1022.386719 3053.648438 1016.492188 C 3053.648438 1011.582031 3053.78125 1007.484375 3054.03125 1004.15625 C 3054.269531 1000.84375 3054.378906 998.214844 3054.378906 996.242188 C 3054.378906 992.320313 3054.03125 989.867188 3053.28125 988.882813 C 3052.539063 987.894531 3051.570313 987.414063 3050.320313 987.414063 C 3049.359375 987.414063 3048.441406 987.765625 3047.578125 988.507813 C 3046.710938 989.230469 3045.921875 989.976563 3045.171875 990.722656 C 3044.191406 991.707031 3043.328125 992.671875 3042.609375 993.65625 C 3039.890625 997.097656 3037.128906 1001.527344 3034.300781 1006.914063 C 3031.5 1012.328125 3028.71875 1017.476563 3026.019531 1022.386719 C 3023.078125 1028.28125 3020.128906 1034.4375 3017.191406 1040.816406 C 3015.21875 1044.257813 3013.140625 1047.5 3010.921875 1050.566406 C 3008.710938 1053.636719 3005.511719 1055.167969 3001.351563 1055.167969 C 2996.441406 1055.167969 2992.621094 1052.714844 2989.929688 1047.804688 C 2987.210938 1042.898438 2985.199219 1037.242188 2983.839844 1030.867188 C 2982.5 1024.488281 2981.578125 1018.222656 2981.078125 1012.085938 C 2980.589844 1005.953125 2980.109375 1001.765625 2979.609375 999.554688 C 2978.859375 996.113281 2977.53125 994.402344 2975.550781 994.402344 C 2975.070313 994.402344 2974.519531 994.535156 2973.910156 994.777344 C 2973.28125 995.015625 2972.730469 995.257813 2972.238281 995.5 C 2971.519531 996.003906 2971.019531 996.351563 2970.78125 996.617188 C 2966.351563 1001.019531 2962.359375 1006.804688 2958.789063 1013.929688 C 2955.238281 1021.050781 2952.109375 1028.039063 2949.410156 1034.921875 C 2946.449219 1043.027344 2943.761719 1051.488281 2941.300781 1060.339844 C 2940.078125 1064.746094 2938.480469 1067.332031 2936.53125 1068.074219 C 2934.550781 1068.800781 2932.339844 1069.171875 2929.890625 1069.171875 C 2926.929688 1069.171875 2924.5 1068.558594 2922.519531 1067.332031 C 2920.550781 1066.105469 2919.019531 1064.636719 2917.921875 1062.902344 C 2916.800781 1061.195313 2916.078125 1059.355469 2915.710938 1057.382813 C 2915.339844 1055.429688 2915.160156 1053.699219 2915.160156 1052.230469 C 2915.160156 1047.324219 2915.511719 1042.789063 2916.261719 1038.601563 C 2916.5 1036.148438 2916.871094 1033.695313 2917.371094 1031.238281 C 2917.859375 1027.054688 2918.230469 1023.066406 2918.46875 1019.253906 C 2918.710938 1015.460938 2918.839844 1011.847656 2918.839844 1008.40625 C 2918.839844 999.816406 2918.269531 992.367188 2917.179688 986.121094 C 2916.078125 979.851563 2914.898438 974.636719 2913.671875 970.453125 C 2912.199219 965.542969 2910.601563 961.378906 2908.890625 957.941406 C 2908.648438 957.699219 2908.390625 957.195313 2908.148438 956.472656 C 2907.910156 955.726563 2907.78125 954.367188 2907.78125 952.417969 C 2907.78125 950.929688 2908.148438 949.285156 2908.890625 947.441406 C 2909.640625 945.601563 2910.601563 943.871094 2911.828125 942.273438 C 2913.058594 940.671875 2914.660156 939.269531 2916.628906 938.042969 C 2918.578125 936.816406 2920.789063 936.203125 2923.25 936.203125 C 2925.699219 936.203125 2928.53125 937.253906 2931.730469 939.335938 C 2934.929688 941.417969 2937.488281 946.148438 2939.460938 953.511719 C 2939.941406 955.96875 2940.558594 959.035156 2941.300781 962.71875 C 2941.789063 966.15625 2942.21875 970.386719 2942.601563 975.425781 C 2942.96875 980.464844 2943.140625 986.535156 2943.140625 993.65625 C 2943.140625 993.921875 2943.28125 994.160156 2943.519531 994.402344 C 2943.519531 994.886719 2943.761719 995.125 2944.261719 995.125 C 2944.480469 995.125 2944.851563 994.777344 2945.359375 994.03125 C 2946.078125 992.320313 2947.679688 989.296875 2950.128906 985.003906 C 2952.589844 980.707031 2955.71875 976.238281 2959.539063 971.570313 C 2963.351563 966.902344 2967.710938 962.78125 2972.621094 959.234375 C 2977.53125 955.660156 2982.679688 953.886719 2988.089844 953.886719 C 2993 953.886719 2996.371094 955.527344 2998.210938 958.859375 C 3000.050781 962.167969 3001.589844 969.226563 3002.808594 980.027344 C 3003.058594 984.695313 3003.558594 988.75 3004.28125 992.191406 C 3004.789063 995.125 3005.328125 997.84375 3005.949219 1000.296875 C 3006.558594 1002.753906 3007.351563 1003.980469 3008.339844 1003.980469 C 3008.839844 1003.980469 3009.558594 1003.476563 3010.550781 1002.488281 C 3012.28125 1000.78125 3014.121094 997.472656 3016.070313 992.5625 C 3016.308594 991.578125 3017.738281 988.378906 3020.320313 982.988281 C 3022.890625 977.574219 3026.261719 971.878906 3030.449219 965.851563 C 3034.609375 959.847656 3039.410156 954.433594 3044.800781 949.636719 C 3050.210938 944.855469 3055.980469 942.46875 3062.109375 942.46875 C 3066.300781 942.46875 3069.671875 943.566406 3072.261719 945.777344 C 3074.820313 947.992188 3076.789063 950.753906 3078.148438 954.0625 C 3079.488281 957.390625 3080.359375 961.140625 3080.71875 965.304688 C 3081.089844 969.464844 3081.289063 973.410156 3081.289063 977.09375 C 3081.289063 997.953125 3081.878906 1014.71875 3083.101563 1027.359375 C 3084.351563 1040.003906 3088.140625 1048.792969 3094.519531 1053.699219 C 3095.019531 1053.941406 3095.53125 1054.445313 3096.011719 1055.167969 C 3096.488281 1055.671875 3096.929688 1056.285156 3097.300781 1057.03125 C 3097.648438 1057.753906 3097.851563 1058.609375 3097.851563 1059.59375 Z M 3097.851563 1059.59375 "/>
</g>
<path style=" stroke:none;fill-rule:evenodd;fill:rgb(6.272888%,16.479492%,51.367188%);fill-opacity:1;" d="M 296.242188 652.53125 C 296.242188 667.644531 291.367188 683.238281 281.617188 699.335938 C 271.867188 715.410156 258.949219 730.152344 242.855469 743.566406 C 226.777344 756.960938 208.496094 767.820313 188.019531 776.105469 C 167.546875 784.394531 146.828125 788.539063 125.867188 788.539063 C 105.878906 788.539063 88.820313 785.484375 74.679688 779.398438 C 60.542969 773.296875 48.84375 765.746094 39.582031 756.71875 C 30.320313 747.710938 23.007813 737.71875 17.644531 726.75 C 12.285156 715.78125 8.382813 705.179688 5.945313 694.929688 C 3.507813 684.699219 1.925781 675.5625 1.191406 667.515625 C 0.460938 659.46875 0.09375 653.75 0.09375 650.328125 C 0.09375 622.0625 5.335938 591.722656 15.820313 559.292969 C 26.300781 526.882813 41.042969 496.78125 60.054688 468.996094 C 79.066406 441.210938 101.734375 418.179688 128.058594 399.882813 C 154.382813 381.605469 183.386719 372.464844 215.074219 372.464844 C 218 372.464844 222.996094 372.835938 230.0625 373.558594 C 237.132813 374.296875 244.449219 376.851563 252 381.253906 C 259.558594 385.636719 266.257813 392.464844 272.113281 401.714844 C 277.960938 410.980469 280.886719 424.394531 280.886719 441.933594 C 280.886719 449.238281 279.664063 459.246094 277.230469 471.921875 C 274.789063 484.59375 270.769531 497.265625 265.164063 509.9375 C 259.558594 522.609375 252.121094 533.578125 242.855469 542.847656 C 233.597656 552.113281 221.902344 556.738281 207.765625 556.738281 C 200.9375 556.738281 194.847656 555.148438 189.484375 551.984375 C 184.117188 548.820313 181.441406 542.605469 181.441406 533.339844 C 181.441406 526.03125 184.117188 517.984375 189.484375 509.214844 C 192.894531 503.351563 196.0625 497.503906 198.992188 491.660156 C 201.425781 486.292969 203.621094 480.929688 205.570313 475.5625 C 207.519531 470.21875 208.496094 464.851563 208.496094 459.488281 C 208.496094 448.757813 202.398438 443.394531 190.214844 443.394531 C 179 443.394531 166.9375 448.519531 154.019531 458.746094 C 141.101563 468.996094 129.03125 483 117.824219 500.796875 C 106.609375 518.59375 97.347656 539.425781 90.039063 563.324219 C 82.722656 587.210938 79.066406 612.554688 79.066406 639.378906 C 79.066406 644.722656 79.4375 651.679688 80.167969 660.207031 C 80.898438 668.734375 82.722656 677.265625 85.648438 685.792969 C 88.578125 694.339844 93.085938 701.757813 99.179688 708.101563 C 105.269531 714.429688 113.679688 717.609375 124.402344 717.609375 C 129.277344 717.609375 136.105469 717 144.878906 715.78125 C 153.65625 714.558594 163.523438 711.15625 174.492188 705.550781 C 185.460938 699.945313 197.035156 691.769531 209.226563 681.039063 C 221.414063 670.328125 233.109375 655.453125 244.328125 636.4375 C 246.273438 633.511719 248.46875 631.070313 250.90625 629.128906 C 253.34375 627.1875 256.023438 625.484375 258.949219 624.003906 C 261.871094 622.542969 265.285156 621.820313 269.183594 621.820313 C 276.5 621.820313 282.835938 624.246094 288.195313 629.128906 C 293.558594 633.992188 296.242188 641.800781 296.242188 652.53125 Z M 518.53125 623.28125 C 518.53125 647.164063 515.121094 668.015625 508.292969 685.792969 C 501.46875 703.589844 492.453125 718.460938 481.238281 730.414063 C 470.027344 742.34375 457.472656 751.355469 443.582031 757.460938 C 429.6875 763.546875 415.671875 766.597656 401.535156 766.597656 C 382.527344 766.597656 367.902344 761.953125 357.667969 752.703125 C 347.425781 743.4375 339.875 733.207031 335 721.996094 C 329.632813 708.84375 326.46875 693.710938 325.488281 676.652344 C 325.488281 665.441406 326.710938 654.84375 329.144531 644.851563 C 331.585938 634.863281 334.507813 625.722656 337.917969 617.4375 C 341.820313 608.167969 346.207031 599.398438 351.082031 591.113281 C 351.082031 590.613281 350.351563 589.648438 348.890625 588.171875 C 348.398438 587.6875 347.910156 587.449219 347.425781 587.449219 C 339.628906 587.449219 333.527344 585.859375 329.144531 582.695313 C 324.757813 579.53125 322.5625 575.496094 322.5625 570.632813 C 322.5625 564.285156 325.121094 557.960938 330.246094 551.617188 C 335.363281 545.289063 342.1875 539.792969 350.71875 535.171875 C 359.25 530.546875 368.753906 526.753906 379.234375 523.828125 C 389.71875 520.90625 400.074219 519.445313 410.3125 519.445313 C 419.085938 519.445313 429.566406 520.796875 441.753906 523.460938 C 453.945313 526.160156 465.761719 531.15625 477.21875 538.460938 C 488.671875 545.769531 498.421875 556.238281 506.46875 569.894531 C 514.511719 583.546875 518.53125 601.34375 518.53125 623.28125 Z M 459.304688 638.636719 C 458.816406 626.445313 457.105469 615.714844 454.1875 606.464844 C 451.746094 598.179688 447.96875 590.851563 442.851563 584.527344 C 437.730469 578.179688 430.296875 575.015625 420.546875 575.015625 C 417.625 575.015625 414.089844 576.71875 409.941406 580.140625 C 405.800781 583.546875 401.902344 588.671875 398.246094 595.496094 C 394.59375 602.324219 391.421875 610.851563 388.738281 621.082031 C 386.0625 631.328125 384.714844 643.019531 384.714844 656.175781 C 384.714844 660.078125 384.839844 665.332031 385.085938 671.898438 C 385.332031 678.484375 386.546875 685.183594 388.738281 692.007813 C 390.9375 698.835938 394.347656 704.699219 398.980469 709.5625 C 403.613281 714.429688 410.3125 716.871094 419.085938 716.871094 C 428.835938 716.871094 436.394531 712.855469 441.753906 704.808594 C 447.117188 696.761719 451.015625 687.863281 453.449219 678.113281 C 456.378906 666.421875 458.328125 653.253906 459.304688 638.636719 Z M 792.003906 743.195313 C 792.003906 751.003906 790.179688 756.960938 786.519531 761.105469 C 782.863281 765.246094 778.847656 768.300781 774.460938 770.242188 C 769.09375 772.203125 763.488281 773.425781 757.640625 773.90625 C 745.453125 773.90625 735.941406 769.648438 729.125 761.105469 C 722.296875 752.574219 717.300781 742.105469 714.128906 729.671875 C 710.964844 717.242188 709.011719 704.328125 708.277344 690.917969 C 707.550781 677.503906 707.1875 665.683594 707.1875 655.453125 L 707.1875 641.558594 C 707.1875 636.695313 705.230469 634.253906 701.339844 634.253906 C 694.996094 634.253906 688.785156 637.898438 682.695313 645.222656 C 676.597656 652.53125 670.503906 661.667969 664.414063 672.640625 C 658.316406 683.609375 652.46875 695.429688 646.863281 708.101563 C 641.253906 720.773438 635.890625 732.726563 630.769531 743.9375 C 625.65625 755.148438 620.78125 764.65625 616.144531 772.445313 C 611.519531 780.25 607.496094 784.636719 604.078125 785.617188 C 601.644531 786.097656 599.453125 786.578125 597.503906 787.078125 C 595.550781 787.558594 593.601563 787.796875 591.65625 787.796875 C 584.339844 787.796875 578.613281 784.875 574.472656 779.03125 C 570.328125 773.183594 567.15625 765.507813 564.964844 755.996094 C 562.769531 746.488281 561.308594 735.648438 560.578125 723.457031 C 559.847656 711.265625 559.480469 698.835938 559.480469 686.160156 C 559.480469 675.933594 560.089844 663.609375 561.308594 649.238281 C 562.519531 634.863281 564.113281 620.601563 566.0625 606.464844 C 568.007813 592.3125 570.328125 579.273438 573.011719 567.339844 C 575.6875 555.390625 578.734375 546.492188 582.152344 540.644531 C 584.585938 536.261719 587.511719 532.117188 590.914063 528.214844 C 593.847656 525.289063 597.625 522.496094 602.257813 519.816406 C 606.886719 517.132813 612.613281 515.78125 619.441406 515.78125 C 620.410156 515.78125 622.121094 515.910156 624.558594 516.152344 C 626.988281 516.390625 629.433594 517.132813 631.867188 518.355469 C 634.308594 519.554688 636.5 521.40625 638.453125 523.828125 C 640.398438 526.269531 641.378906 529.695313 641.378906 534.078125 C 641.378906 540.40625 639.425781 547.710938 635.527344 556 C 631.625 566.730469 628.460938 577.460938 626.019531 588.171875 C 623.585938 597.4375 621.511719 607.558594 619.808594 618.527344 C 618.097656 629.496094 617.246094 639.617188 617.246094 648.867188 C 617.246094 655.210938 618.21875 658.375 620.171875 658.375 C 621.144531 658.375 621.871094 657.894531 622.363281 656.914063 C 624.316406 653.992188 628.703125 647.035156 635.527344 636.085938 C 642.351563 625.097656 650.761719 613.53125 660.753906 601.34375 C 670.746094 589.152344 681.59375 578.308594 693.292969 568.800781 C 704.992188 559.292969 717.179688 554.539063 729.851563 554.539063 C 743.992188 554.539063 752.765625 559.421875 756.179688 569.171875 C 759.589844 578.921875 761.296875 594.757813 761.296875 616.695313 C 761.296875 621.578125 761.054688 626.6875 760.5625 632.050781 C 760.070313 637.414063 759.832031 643.503906 759.832031 650.328125 C 759.832031 655.210938 759.953125 661.667969 760.203125 669.714844 C 760.445313 677.761719 761.421875 685.921875 763.125 694.210938 C 764.835938 702.496094 767.269531 710.175781 770.4375 717.242188 C 773.601563 724.308594 777.863281 729.304688 783.234375 732.226563 L 787.621094 735.148438 C 790.539063 738.070313 792.003906 740.773438 792.003906 743.195313 Z M 1057.441406 743.195313 C 1057.441406 751.003906 1055.609375 756.960938 1051.949219 761.105469 C 1048.289063 765.246094 1044.28125 768.300781 1039.890625 770.242188 C 1034.53125 772.203125 1028.921875 773.425781 1023.070313 773.90625 C 1010.878906 773.90625 1001.378906 769.648438 994.558594 761.105469 C 987.730469 752.574219 982.730469 742.105469 979.5625 729.671875 C 976.394531 717.242188 974.441406 704.328125 973.714844 690.917969 C 972.984375 677.503906 972.621094 665.683594 972.621094 655.453125 L 972.621094 641.558594 C 972.621094 636.695313 970.667969 634.253906 966.769531 634.253906 C 960.429688 634.253906 954.21875 637.898438 948.121094 645.222656 C 942.027344 652.53125 935.9375 661.667969 929.84375 672.640625 C 923.746094 683.609375 917.898438 695.429688 912.296875 708.101563 C 906.683594 720.773438 901.324219 732.726563 896.207031 743.9375 C 891.085938 755.148438 886.214844 764.65625 881.578125 772.445313 C 876.949219 780.25 872.929688 784.636719 869.515625 785.617188 C 867.078125 786.097656 864.882813 786.578125 862.9375 787.078125 C 860.984375 787.558594 859.03125 787.796875 857.089844 787.796875 C 849.773438 787.796875 844.046875 784.875 839.902344 779.03125 C 835.757813 773.183594 832.589844 765.507813 830.394531 755.996094 C 828.199219 746.488281 826.742188 735.648438 826.011719 723.457031 C 825.277344 711.265625 824.914063 698.835938 824.914063 686.160156 C 824.914063 675.933594 825.519531 663.609375 826.742188 649.238281 C 827.957031 634.863281 829.546875 620.601563 831.492188 606.464844 C 833.4375 592.3125 835.757813 579.273438 838.4375 567.339844 C 841.121094 555.390625 844.167969 546.492188 847.578125 540.644531 C 850.015625 536.261719 852.941406 532.117188 856.351563 528.214844 C 859.277344 525.289063 863.058594 522.496094 867.6875 519.816406 C 872.316406 517.132813 878.046875 515.78125 884.871094 515.78125 C 885.847656 515.78125 887.550781 515.910156 889.988281 516.152344 C 892.425781 516.390625 894.863281 517.132813 897.300781 518.355469 C 899.742188 519.554688 901.933594 521.40625 903.886719 523.828125 C 905.828125 526.269531 906.8125 529.695313 906.8125 534.078125 C 906.8125 540.40625 904.855469 547.710938 900.953125 556 C 897.058594 566.730469 893.894531 577.460938 891.453125 588.171875 C 889.019531 597.4375 886.941406 607.558594 885.234375 618.527344 C 883.53125 629.496094 882.675781 639.617188 882.675781 648.867188 C 882.675781 655.210938 883.652344 658.375 885.605469 658.375 C 886.578125 658.375 887.308594 657.894531 887.796875 656.914063 C 889.746094 653.992188 894.136719 647.035156 900.953125 636.085938 C 907.78125 625.097656 916.191406 613.53125 926.1875 601.34375 C 936.179688 589.152344 947.019531 578.308594 958.726563 568.800781 C 970.421875 559.292969 982.613281 554.539063 995.289063 554.539063 C 1009.429688 554.539063 1018.199219 559.421875 1021.609375 569.171875 C 1025.019531 578.921875 1026.730469 594.757813 1026.730469 616.695313 C 1026.730469 621.578125 1026.488281 626.6875 1026 632.050781 C 1025.511719 637.414063 1025.261719 643.503906 1025.261719 650.328125 C 1025.261719 655.210938 1025.390625 661.667969 1025.640625 669.714844 C 1025.878906 677.761719 1026.851563 685.921875 1028.550781 694.210938 C 1030.261719 702.496094 1032.699219 710.175781 1035.871094 717.242188 C 1039.03125 724.308594 1043.300781 729.304688 1048.671875 732.226563 L 1053.050781 735.148438 C 1055.980469 738.070313 1057.441406 740.773438 1057.441406 743.195313 Z M 1270.949219 577.941406 C 1270.949219 593.054688 1267.78125 607.796875 1261.449219 622.191406 C 1255.121094 636.566406 1246.710938 649.367188 1236.230469 660.578125 C 1225.738281 671.789063 1213.679688 680.796875 1200.03125 687.625 C 1186.378906 694.449219 1171.988281 697.855469 1156.878906 697.855469 C 1155.910156 697.855469 1154.941406 698.355469 1153.960938 699.335938 C 1153.46875 699.816406 1153.230469 700.296875 1153.230469 700.796875 C 1154.210938 712.007813 1156.761719 720.773438 1160.898438 727.121094 C 1165.050781 733.445313 1169.308594 738.570313 1173.699219 742.476563 C 1179.058594 746.859375 1184.910156 749.78125 1191.25 751.242188 C 1203.929688 754.648438 1211.601563 759.160156 1214.289063 764.765625 C 1216.960938 770.371094 1218.308594 775.128906 1218.308594 779.03125 C 1218.308594 785.375 1216.71875 790.109375 1213.558594 793.273438 C 1210.390625 796.457031 1206.851563 798.769531 1202.949219 800.230469 C 1198.558594 802.171875 1193.691406 803.394531 1188.328125 803.894531 C 1171.75 803.894531 1157.980469 800.117188 1147.019531 792.554688 C 1136.039063 785.003906 1127.148438 776.589844 1120.320313 767.339844 C 1112.519531 756.609375 1106.429688 744.175781 1102.039063 730.023438 L 1099.851563 721.257813 C 1098.871094 718.332031 1098.140625 714.929688 1097.648438 711.027344 C 1097.171875 707.121094 1096.679688 702.496094 1096.191406 697.132813 C 1096.191406 696.652344 1095.949219 696.152344 1095.460938 695.671875 C 1094.488281 694.691406 1093.511719 694.210938 1092.539063 694.210938 C 1086.691406 693.230469 1081.328125 691.527344 1076.449219 689.085938 C 1072.550781 686.644531 1069.019531 683.238281 1065.851563 678.855469 C 1062.679688 674.472656 1061.089844 668.125 1061.089844 659.835938 C 1061.578125 655.933594 1062.558594 652.53125 1064.019531 649.605469 C 1064.988281 647.164063 1066.578125 644.851563 1068.769531 642.652344 C 1070.960938 640.46875 1073.769531 639.378906 1077.179688 639.378906 C 1078.160156 639.378906 1080.21875 639.730469 1083.398438 640.46875 C 1086.570313 641.191406 1090.828125 642.039063 1096.191406 643.019531 C 1097.171875 643.019531 1097.898438 642.78125 1098.390625 642.28125 C 1098.871094 642.28125 1099.121094 642.039063 1099.121094 641.558594 C 1105.941406 618.640625 1114.960938 598.179688 1126.171875 580.140625 C 1131.050781 572.335938 1136.410156 564.785156 1142.261719 557.480469 C 1148.109375 550.152344 1154.808594 543.566406 1162.371094 537.722656 C 1169.929688 531.878906 1178.089844 527.253906 1186.859375 523.828125 C 1195.640625 520.425781 1205.390625 518.703125 1216.109375 518.703125 C 1220.988281 518.703125 1226.589844 519.445313 1232.929688 520.90625 C 1239.269531 522.367188 1245.238281 525.289063 1250.851563 529.695313 C 1256.449219 534.078125 1261.210938 540.164063 1265.109375 547.972656 C 1269.011719 555.757813 1270.949219 565.75 1270.949219 577.941406 Z M 1218.308594 585.246094 C 1218.308594 582.324219 1217.808594 579.902344 1216.839844 577.941406 C 1215.871094 575.996094 1214.648438 574.164063 1213.191406 572.464844 C 1211.71875 570.761719 1209.53125 569.894531 1206.609375 569.894531 C 1200.761719 569.894531 1194.539063 572.574219 1187.960938 577.941406 C 1181.378906 583.304688 1175.289063 590.003906 1169.679688 598.050781 C 1164.078125 606.097656 1159.570313 614.625 1156.148438 623.632813 C 1152.738281 632.660156 1151.03125 640.820313 1151.03125 648.144531 C 1151.03125 650.570313 1152.011719 651.789063 1153.960938 651.789063 C 1157.371094 651.789063 1162.609375 650.457031 1169.679688 647.777344 C 1176.75 645.09375 1183.941406 641.078125 1191.25 635.714844 C 1198.558594 630.347656 1204.898438 623.523438 1210.261719 615.234375 C 1215.628906 606.945313 1218.308594 596.957031 1218.308594 585.246094 Z M 1476.421875 697.855469 C 1476.421875 709.082031 1473.371094 720.035156 1467.28125 730.765625 C 1461.199219 741.492188 1452.910156 751.242188 1442.421875 760.011719 C 1431.949219 768.800781 1419.761719 775.867188 1405.859375 781.230469 C 1391.96875 786.578125 1377.230469 789.261719 1361.628906 789.261719 C 1345.539063 789.261719 1332.621094 785.375 1322.871094 777.566406 C 1313.121094 769.761719 1305.691406 760.492188 1300.570313 749.78125 C 1295.460938 739.050781 1292.039063 728.324219 1290.328125 717.609375 C 1288.628906 706.882813 1287.78125 698.835938 1287.78125 693.46875 C 1287.78125 674.472656 1291.191406 654.84375 1298.011719 634.621094 C 1304.839844 614.382813 1314.339844 595.867188 1326.53125 579.03125 C 1338.710938 562.234375 1353.339844 548.453125 1370.398438 537.722656 C 1387.460938 527.011719 1406.230469 521.644531 1426.691406 521.644531 C 1439.378906 521.644531 1448.890625 524.199219 1455.21875 529.324219 C 1461.570313 534.429688 1466.429688 540.164063 1469.851563 546.492188 C 1473.261719 553.816406 1475.460938 562.105469 1476.421875 571.371094 C 1476.421875 573.796875 1475.941406 578.921875 1474.960938 586.710938 C 1474 594.515625 1471.671875 602.5625 1468.019531 610.851563 C 1464.359375 619.140625 1458.878906 626.574219 1451.578125 633.144531 C 1444.25 639.730469 1434.261719 643.019531 1421.589844 643.019531 C 1416.21875 643.019531 1412.558594 640.339844 1410.621094 634.972656 C 1409.640625 632.53125 1409.160156 629.609375 1409.160156 626.203125 C 1409.160156 622.78125 1409.898438 619.621094 1411.359375 616.695313 C 1412.820313 613.773438 1414.519531 610.851563 1416.460938 607.929688 C 1418.429688 605.003906 1420.128906 601.824219 1421.589844 598.417969 C 1423.050781 595.015625 1423.789063 591.351563 1423.789063 587.449219 C 1423.789063 584.527344 1423.050781 581.234375 1421.589844 577.570313 C 1420.128906 573.925781 1416.699219 572.09375 1411.359375 572.09375 C 1406.960938 572.09375 1401 574.164063 1393.429688 578.308594 C 1385.878906 582.453125 1378.449219 589.039063 1371.128906 598.050781 C 1363.820313 607.078125 1357.601563 618.527344 1352.488281 632.421875 C 1347.371094 646.3125 1344.808594 663 1344.808594 682.5 C 1344.808594 688.84375 1345.171875 695.300781 1345.910156 701.886719 C 1346.640625 708.472656 1348.21875 714.558594 1350.660156 720.164063 C 1353.101563 725.769531 1356.261719 730.414063 1360.171875 734.058594 C 1364.058594 737.71875 1369.429688 739.550781 1376.25 739.550781 C 1379.171875 739.550781 1382.828125 739.183594 1387.21875 738.441406 C 1391.601563 737.71875 1396.480469 735.757813 1401.851563 732.597656 C 1407.199219 729.433594 1412.820313 724.679688 1418.671875 718.332031 C 1424.511719 712.007813 1430.359375 702.980469 1436.199219 691.285156 C 1438.640625 686.882813 1441.941406 683.238281 1446.078125 680.316406 C 1450.230469 677.394531 1454.5 675.933594 1458.878906 675.933594 C 1463.269531 675.933594 1466.671875 677.152344 1469.109375 679.578125 C 1471.558594 682.019531 1473.261719 684.460938 1474.238281 686.882813 C 1475.699219 690.304688 1476.421875 693.96875 1476.421875 697.855469 Z M 1688.480469 479.226563 C 1688.480469 484.109375 1687.261719 487.886719 1684.820313 490.566406 C 1682.378906 493.25 1679.949219 495.082031 1677.511719 496.042969 C 1674.589844 497.503906 1671.179688 498.246094 1667.28125 498.246094 C 1662.398438 498.246094 1656.070313 498.726563 1648.261719 499.707031 C 1640.460938 500.667969 1632.78125 502.019531 1625.230469 503.71875 C 1617.679688 505.421875 1611.101563 507.253906 1605.488281 509.214844 C 1599.890625 511.15625 1596.828125 512.859375 1596.351563 514.320313 C 1594.890625 524.070313 1593.429688 536.742188 1591.949219 552.355469 C 1590.988281 565.507813 1590.011719 582.324219 1589.050781 602.804688 C 1588.070313 623.28125 1587.570313 647.886719 1587.570313 676.652344 C 1589.050781 696.152344 1591.230469 714.429688 1594.148438 731.503906 C 1596.589844 746.617188 1599.890625 761.714844 1604.03125 776.847656 C 1608.171875 791.941406 1613.648438 803.652344 1620.480469 811.941406 C 1624.859375 817.785156 1627.058594 822.910156 1627.058594 827.296875 C 1627.058594 834.101563 1623.769531 839.117188 1617.179688 842.28125 C 1610.601563 845.441406 1605.359375 847.035156 1601.460938 847.035156 C 1593.671875 847.035156 1587.328125 845.332031 1582.460938 841.910156 C 1579.539063 840.449219 1577.089844 838.746094 1575.128906 836.804688 C 1566.371094 828.496094 1559.300781 817.414063 1553.929688 803.523438 C 1548.570313 789.628906 1544.429688 774.515625 1541.5 758.179688 C 1538.578125 741.863281 1536.511719 724.789063 1535.289063 706.992188 C 1534.070313 689.214844 1533.46875 672.269531 1533.46875 656.175781 C 1533.46875 643.019531 1533.828125 628.648438 1534.558594 613.035156 C 1535.289063 597.4375 1536.140625 582.824219 1537.121094 569.171875 C 1538.578125 553.078125 1540.039063 537.242188 1541.5 521.644531 C 1541.5 520.183594 1541.019531 519.445313 1540.039063 519.445313 L 1538.578125 519.445313 C 1514.199219 519.445313 1497.398438 517.371094 1488.128906 513.230469 C 1478.859375 509.085938 1474.238281 502.386719 1474.238281 493.121094 C 1474.238281 491.660156 1474.480469 489.476563 1474.960938 486.535156 C 1475.460938 483.609375 1476.789063 480.6875 1478.988281 477.765625 C 1481.179688 474.84375 1484.46875 472.269531 1488.851563 470.089844 C 1493.261719 467.886719 1499.101563 466.796875 1506.410156 466.796875 C 1511.769531 466.796875 1515.921875 467.277344 1518.839844 468.257813 C 1521.761719 469.238281 1526.648438 469.71875 1533.46875 469.71875 C 1534.921875 469.71875 1537.839844 469.476563 1542.21875 468.996094 C 1546.628906 468.496094 1548.808594 467.035156 1548.808594 464.59375 C 1552.710938 436.328125 1557.230469 414.273438 1562.351563 398.421875 C 1567.460938 382.585938 1572.820313 370.894531 1578.429688 363.328125 C 1584.03125 355.78125 1589.898438 351.15625 1595.980469 349.433594 C 1602.070313 347.730469 1608.039063 346.882813 1613.890625 346.882813 C 1616.808594 346.882813 1619.5 347.363281 1621.941406 348.34375 C 1624.378906 349.324219 1626.449219 350.894531 1628.148438 353.097656 C 1629.859375 355.28125 1630.730469 358.332031 1630.730469 362.234375 C 1630.730469 368.082031 1629.988281 373.6875 1628.519531 379.050781 C 1627.058594 384.417969 1625.121094 390.390625 1622.679688 396.960938 C 1620.238281 403.546875 1617.679688 411.351563 1614.980469 420.359375 C 1612.320313 429.390625 1609.511719 440.953125 1606.578125 455.105469 C 1606.578125 457.046875 1607.320313 458.027344 1608.78125 458.027344 C 1610.730469 458.027344 1616.089844 456.933594 1624.859375 454.734375 C 1633.628906 452.53125 1641.679688 451.441406 1649 451.441406 C 1658.25 451.441406 1665.558594 452.902344 1670.941406 455.824219 C 1676.289063 458.746094 1680.191406 461.929688 1682.628906 465.335938 C 1685.558594 469.71875 1687.5 474.34375 1688.480469 479.226563 Z M 1688.480469 479.226563 "/>
<path style=" stroke:none;fill-rule:evenodd;fill:rgb(6.272888%,16.479492%,51.367188%);fill-opacity:1;" d="M 2883.25 375.394531 C 2883.25 378.324219 2882.988281 381.964844 2882.511719 386.367188 C 2882.011719 390.742188 2880.800781 394.882813 2878.851563 398.785156 C 2876.898438 402.6875 2874.089844 405.972656 2870.449219 408.660156 C 2866.78125 411.351563 2861.789063 412.683594 2855.460938 412.683594 C 2853.511719 412.683594 2847.890625 413.039063 2838.628906 413.777344 C 2829.378906 414.515625 2818.648438 415.847656 2806.460938 417.800781 C 2794.28125 419.75 2781.601563 422.4375 2768.441406 425.84375 C 2755.28125 429.269531 2743.570313 433.886719 2733.339844 439.738281 C 2733.339844 439.738281 2733.101563 440.238281 2732.601563 441.191406 C 2732.601563 442.164063 2733.460938 443.023438 2735.171875 443.761719 C 2736.859375 444.496094 2738.808594 445.472656 2741.03125 446.6875 C 2743.21875 447.898438 2745.289063 449.257813 2747.238281 450.707031 C 2749.191406 452.183594 2750.398438 454.109375 2750.898438 456.5625 C 2749.898438 465.34375 2748.328125 476.429688 2746.140625 489.828125 C 2743.929688 503.222656 2741.738281 518.476563 2739.550781 535.535156 C 2737.359375 552.597656 2735.410156 570.871094 2733.699219 590.359375 C 2731.988281 609.871094 2731.148438 629.859375 2731.148438 650.324219 C 2731.148438 670.3125 2732.25 689.207031 2734.441406 707.003906 C 2736.628906 724.804688 2740.648438 740.269531 2746.5 753.429688 C 2747 753.929688 2747.480469 754.902344 2747.980469 756.355469 C 2748.929688 759.28125 2749.429688 761.972656 2749.429688 764.398438 C 2749.429688 765.375 2749.070313 767.445313 2748.328125 770.609375 C 2747.589844 773.773438 2746 777.082031 2743.570313 780.484375 C 2741.148438 783.886719 2737.480469 786.957031 2732.601563 789.621094 C 2727.730469 792.308594 2721.160156 793.644531 2712.851563 793.644531 C 2704.570313 793.644531 2697.390625 791.214844 2691.300781 786.339844 C 2685.199219 781.460938 2680.210938 775.367188 2676.300781 768.0625 C 2672.398438 760.734375 2669.359375 752.691406 2667.171875 743.933594 C 2664.980469 735.152344 2663.261719 726.636719 2662.050781 718.332031 C 2660.839844 710.050781 2660.101563 702.746094 2659.859375 696.390625 C 2659.601563 690.0625 2659.480469 685.683594 2659.480469 683.234375 C 2659.480469 660.820313 2660.960938 636.308594 2663.878906 609.753906 C 2666.789063 583.175781 2670.210938 558.191406 2674.121094 534.800781 C 2678.488281 507.980469 2683.371094 480.929688 2688.730469 453.636719 C 2688.730469 451.183594 2687.75 449.96875 2685.800781 449.96875 C 2677.039063 451.921875 2669.359375 454.253906 2662.769531 456.917969 C 2656.199219 459.605469 2650.109375 462.296875 2644.488281 464.960938 C 2638.898438 467.648438 2633.640625 469.839844 2628.789063 471.550781 C 2623.910156 473.242188 2619.269531 474.097656 2614.890625 474.097656 C 2606.589844 474.097656 2600.761719 470.933594 2597.328125 464.605469 C 2595.378906 462.152344 2594.160156 458.988281 2593.660156 455.085938 C 2593.660156 449.730469 2595.378906 442.308594 2598.800781 432.789063 C 2602.210938 423.296875 2611.230469 414.394531 2625.859375 406.117188 C 2647.300781 394.410156 2669.710938 384.175781 2693.128906 375.394531 C 2713.121094 367.589844 2735.410156 360.523438 2760.039063 354.195313 C 2784.640625 347.839844 2809.390625 344.675781 2834.261719 344.675781 C 2837.660156 344.675781 2842.179688 344.914063 2847.769531 345.414063 C 2853.390625 345.890625 2858.738281 347.246094 2863.859375 349.4375 C 2868.96875 351.625 2873.488281 354.789063 2877.398438 358.929688 C 2881.300781 363.070313 2883.25 368.566406 2883.25 375.394531 Z M 3005.339844 626.195313 C 3005.339844 630.097656 3004.011719 633.144531 3001.320313 635.335938 C 2998.628906 637.523438 2995.609375 639.117188 2992.179688 640.09375 C 2988.28125 641.546875 2983.898438 642.28125 2979.03125 642.28125 C 2969.269531 642.28125 2961.851563 640.710938 2956.730469 637.523438 C 2951.609375 634.382813 2947.589844 630.835938 2944.671875 626.933594 C 2941.738281 623.03125 2939.550781 619.484375 2938.070313 616.320313 C 2936.621094 613.15625 2934.910156 611.585938 2932.960938 611.585938 C 2930.03125 611.585938 2925.269531 616.703125 2918.710938 626.933594 C 2912.109375 637.164063 2905.429688 650.324219 2898.601563 666.410156 C 2891.769531 682.496094 2885.800781 700.296875 2880.679688 719.808594 C 2875.558594 739.296875 2872.988281 758.308594 2872.988281 776.84375 C 2872.988281 785.125 2870.691406 790.714844 2866.050781 793.644531 C 2861.429688 796.570313 2855.699219 798.046875 2848.871094 798.046875 C 2841.058594 798.046875 2835.109375 794.617188 2830.949219 787.789063 C 2826.808594 780.984375 2823.761719 772.441406 2821.808594 762.210938 C 2819.859375 751.976563 2818.648438 740.507813 2818.171875 727.847656 C 2817.671875 715.164063 2817.429688 702.984375 2817.429688 691.277344 C 2817.429688 671.789063 2818.03125 652.515625 2819.238281 633.503906 C 2820.480469 614.488281 2821.808594 598.164063 2823.289063 584.53125 C 2824.738281 573.300781 2826.691406 564.042969 2829.121094 556.738281 C 2831.570313 549.410156 2834.609375 543.816406 2838.25 539.914063 C 2841.921875 536.011719 2846.179688 533.203125 2851.058594 531.515625 C 2855.929688 529.804688 2861.789063 528.945313 2868.621094 528.945313 C 2871.039063 529.445313 2873.230469 530.421875 2875.179688 531.871094 C 2876.660156 532.847656 2878.109375 534.679688 2879.589844 537.347656 C 2881.039063 540.035156 2881.78125 543.578125 2881.78125 547.957031 C 2881.78125 550.886719 2881.539063 553.074219 2881.039063 554.550781 C 2880.058594 561.378906 2878.851563 568.421875 2877.398438 575.75 C 2876.421875 582.078125 2875.300781 589.265625 2874.089844 597.308594 C 2872.878906 605.351563 2872.019531 613.777344 2871.539063 622.554688 C 2871.539063 623.507813 2871.78125 624.484375 2872.28125 625.484375 C 2872.761719 626.933594 2873.730469 627.671875 2875.179688 627.671875 C 2876.660156 627.671875 2877.640625 626.433594 2878.109375 624.007813 C 2881.039063 616.703125 2884.441406 608.660156 2888.339844 599.878906 C 2891.769531 592.550781 2895.671875 584.410156 2900.050781 575.394531 C 2904.449219 566.375 2909.808594 557.476563 2916.140625 548.695313 C 2919.058594 544.292969 2921.011719 540.535156 2921.988281 537.347656 C 2922.960938 534.179688 2925.890625 528.945313 2930.769531 521.640625 C 2934.171875 517.738281 2938.070313 514.3125 2942.449219 511.410156 C 2946.359375 508.957031 2950.519531 506.53125 2954.898438 504.078125 C 2959.28125 501.652344 2964.148438 500.4375 2969.511719 500.4375 C 2973.410156 500.4375 2977.070313 501.652344 2980.480469 504.078125 C 2983.898438 506.53125 2985.621094 510.433594 2985.621094 515.785156 C 2985.621094 522.117188 2985 528.328125 2983.78125 534.441406 C 2982.570313 540.535156 2981.949219 547.71875 2981.949219 556 C 2981.949219 569.660156 2983.171875 580.367188 2985.621094 588.171875 C 2988.039063 595.976563 2990.730469 602.1875 2993.640625 606.828125 C 2996.589844 611.445313 2999.25 615.109375 3001.699219 617.796875 C 3004.128906 620.460938 3005.339844 623.269531 3005.339844 626.195313 Z M 3115.78125 423.652344 C 3115.78125 427.054688 3114.921875 431.695313 3113.210938 437.550781 C 3111.488281 443.402344 3108.710938 449.257813 3104.808594 455.085938 C 3100.898438 460.941406 3095.671875 466.054688 3089.078125 470.457031 C 3082.488281 474.835938 3074.328125 477.023438 3064.589844 477.023438 C 3055.308594 477.023438 3049.101563 474.335938 3045.941406 468.980469 C 3042.769531 463.628906 3041.179688 457.773438 3041.179688 451.445313 C 3041.179688 446.066406 3042.511719 440.476563 3045.199219 434.621094 C 3047.890625 428.769531 3051.648438 423.296875 3056.53125 418.15625 C 3061.398438 413.039063 3067.140625 408.898438 3073.730469 405.734375 C 3080.300781 402.570313 3087.25 400.976563 3094.550781 400.976563 C 3097.980469 400.976563 3102.359375 402.214844 3107.710938 404.640625 C 3113.089844 407.089844 3115.78125 413.421875 3115.78125 423.652344 Z M 3093.101563 558.929688 C 3092.601563 561.378906 3091.648438 566.375 3090.171875 573.917969 C 3088.71875 581.484375 3087.25 590.480469 3085.789063 600.972656 C 3084.320313 611.445313 3082.988281 623.269531 3081.769531 636.429688 C 3080.539063 649.609375 3079.941406 663.246094 3079.941406 677.378906 C 3079.941406 688.109375 3080.421875 698.222656 3081.390625 707.742188 C 3082.371094 717.238281 3083.339844 725.398438 3084.320313 732.226563 C 3085.789063 741.007813 3087.25 748.8125 3088.71875 755.617188 C 3087.71875 762.445313 3084.441406 766.96875 3078.851563 769.15625 C 3073.230469 771.347656 3068.46875 772.441406 3064.589844 772.441406 C 3060.191406 772.441406 3056.050781 771.464844 3052.148438 769.515625 C 3050.199219 768.539063 3048.71875 767.5625 3047.769531 766.589844 C 3039.46875 756.832031 3033.75 743.195313 3030.589844 725.636719 C 3027.398438 708.097656 3025.828125 689.324219 3025.828125 669.335938 C 3025.828125 654.226563 3026.429688 639.355469 3027.660156 624.746094 C 3028.878906 610.109375 3030.210938 596.953125 3031.679688 585.246094 C 3033.640625 571.609375 3035.589844 558.691406 3037.511719 546.507813 C 3037.511719 544.554688 3038.488281 542.605469 3040.441406 540.652344 C 3041.921875 539.179688 3044.339844 537.84375 3047.769531 536.632813 C 3051.171875 535.417969 3055.808594 534.800781 3061.640625 534.800781 C 3064.089844 534.800781 3067.140625 535.15625 3070.800781 535.894531 C 3074.441406 536.632813 3077.871094 537.84375 3081.039063 539.558594 C 3084.199219 541.246094 3087.011719 543.699219 3089.441406 546.863281 C 3091.890625 550.027344 3093.101563 554.050781 3093.101563 558.929688 Z M 3404.601563 598.429688 C 3404.601563 623.769531 3398.628906 647.039063 3386.679688 668.242188 C 3374.738281 689.445313 3359.871094 707.980469 3342.089844 723.828125 C 3324.289063 739.652344 3305.019531 752.453125 3284.320313 762.210938 C 3263.589844 771.964844 3244.460938 778.296875 3226.921875 781.222656 C 3225.949219 781.222656 3224.710938 781.960938 3223.261719 783.410156 C 3222.761719 784.386719 3222.28125 785.125 3221.808594 785.601563 C 3220.328125 814.367188 3219.589844 844.851563 3219.589844 877.019531 C 3219.589844 888.226563 3220.089844 898.9375 3221.070313 909.191406 C 3222.050781 918.449219 3223.140625 927.941406 3224.351563 937.699219 C 3225.570313 947.453125 3227.398438 955.734375 3229.828125 962.5625 C 3232.75 970.84375 3234.699219 977.199219 3235.679688 981.578125 C 3236.660156 985.957031 3237.160156 989.128906 3237.160156 991.082031 C 3237.160156 1000.832031 3233.851563 1007.53125 3227.28125 1011.1875 C 3220.691406 1014.847656 3215.21875 1016.671875 3210.808594 1016.671875 C 3206.941406 1016.671875 3204.25 1016.429688 3202.769531 1015.941406 C 3201.320313 1015.941406 3200.339844 1015.699219 3199.871094 1015.210938 C 3191.558594 1012.285156 3185.230469 1005.339844 3180.859375 994.367188 C 3176.449219 983.402344 3173.289063 971.820313 3171.339844 959.636719 C 3169.390625 947.453125 3168.171875 936.246094 3167.671875 925.992188 C 3167.199219 915.757813 3166.960938 909.667969 3166.960938 907.714844 C 3166.960938 891.15625 3166.960938 876.640625 3166.960938 864.21875 C 3166.960938 851.773438 3167.078125 840.804688 3167.320313 831.3125 C 3167.550781 821.816406 3167.820313 813.394531 3168.050781 806.085938 C 3168.289063 798.757813 3168.410156 791.691406 3168.410156 784.886719 C 3168.410156 784.386719 3168.171875 783.886719 3167.671875 783.410156 C 3166.71875 782.433594 3165.480469 781.699219 3164.03125 781.222656 C 3154.28125 779.269531 3145.730469 776.105469 3138.429688 771.703125 C 3132.101563 768.300781 3126.371094 763.660156 3121.25 757.832031 C 3116.128906 751.976563 3113.558594 744.910156 3113.558594 736.605469 C 3113.558594 728.824219 3116.011719 722.972656 3120.890625 719.070313 C 3125.769531 715.164063 3130.148438 713.214844 3134.050781 713.214844 C 3139.398438 713.214844 3144.898438 714.929688 3150.488281 718.332031 C 3156.109375 721.757813 3161.339844 723.445313 3166.21875 723.445313 C 3168.171875 723.445313 3169.621094 722.734375 3170.601563 721.257813 C 3171.101563 720.757813 3171.339844 720.046875 3171.339844 719.070313 C 3173.761719 684.445313 3176.691406 654.964844 3180.121094 630.597656 C 3183.519531 606.210938 3186.949219 585.984375 3190.351563 569.898438 C 3193.75 551.359375 3197.421875 535.773438 3201.320313 523.09375 C 3202.769531 519.191406 3204.980469 515.550781 3207.910156 512.121094 C 3210.339844 509.695313 3213.738281 507.269531 3218.140625 504.816406 C 3222.519531 502.390625 3228.140625 501.152344 3234.941406 501.152344 C 3238.371094 501.152344 3242.269531 501.773438 3246.648438 502.984375 C 3251.050781 504.199219 3253.238281 508.21875 3253.238281 515.050781 C 3253.238281 516.023438 3252.378906 520.664063 3250.671875 528.945313 C 3248.980469 537.226563 3247.148438 546.625 3245.199219 557.097656 C 3243.25 567.589844 3241.410156 577.820313 3239.699219 587.816406 C 3238.011719 597.808594 3237.160156 604.996094 3237.160156 609.371094 C 3237.160156 611.324219 3237.628906 612.300781 3238.609375 612.300781 C 3239.109375 612.300781 3240.320313 611.085938 3242.269531 608.660156 C 3251.050781 596.953125 3261.761719 586.722656 3274.441406 577.941406 C 3284.671875 570.136719 3297.359375 562.949219 3312.46875 556.359375 C 3327.578125 549.789063 3344.640625 546.507813 3363.648438 546.507813 C 3371.449219 547.460938 3378.28125 550.148438 3384.109375 554.550781 C 3389.488281 558.453125 3394.230469 563.804688 3398.390625 570.636719 C 3402.53125 577.464844 3404.601563 586.722656 3404.601563 598.429688 Z M 3347.558594 621.082031 C 3347.558594 617.179688 3346.828125 614.015625 3345.378906 611.585938 C 3343.898438 609.136719 3342.210938 607.445313 3340.261719 606.445313 C 3338.308594 604.996094 3335.859375 604.257813 3332.929688 604.257813 C 3320.75 604.257813 3308.210938 608.898438 3295.289063 618.152344 C 3282.371094 627.410156 3270.660156 638.378906 3260.191406 651.0625 C 3249.691406 663.746094 3241.179688 676.664063 3234.589844 689.824219 C 3228.019531 702.984375 3224.710938 713.453125 3224.710938 721.257813 C 3224.710938 724.183594 3225.449219 725.898438 3226.921875 726.375 C 3227.878906 726.875 3228.851563 727.113281 3229.828125 727.113281 C 3243.011719 727.113281 3256.519531 723.210938 3270.421875 715.402344 C 3284.320313 707.621094 3296.980469 698.105469 3308.449219 686.898438 C 3319.890625 675.691406 3329.289063 664.101563 3336.589844 652.15625 C 3343.898438 640.210938 3347.558594 629.859375 3347.558594 621.082031 Z M 3347.558594 621.082031 "/>
<path style=" stroke:none;fill-rule:evenodd;fill:rgb(98.046875%,68.943787%,0%);fill-opacity:1;" d="M 62.691406 967.429688 C 62.691406 988.378906 52.929688 998.84375 33.40625 998.84375 C 13.804688 998.84375 4.003906 988.378906 4.003906 967.429688 C 4.003906 946.40625 13.804688 935.898438 33.40625 935.898438 C 52.929688 935.898438 62.691406 946.40625 62.691406 967.429688 Z M 50.359375 967.429688 C 50.359375 961.023438 49.296875 956.40625 47.160156 953.566406 C 44.550781 950.003906 39.96875 948.226563 33.40625 948.226563 C 26.847656 948.226563 22.265625 950.003906 19.652344 953.566406 C 17.519531 956.40625 16.453125 961.023438 16.453125 967.429688 C 16.453125 973.835938 17.519531 978.453125 19.652344 981.308594 C 22.265625 984.78125 26.847656 986.527344 33.40625 986.527344 C 39.96875 986.527344 44.550781 984.78125 47.160156 981.308594 C 49.296875 978.453125 50.359375 973.835938 50.359375 967.429688 Z M 136.707031 998.84375 L 124.378906 998.84375 L 124.378906 967.429688 C 124.378906 961.023438 123.304688 956.40625 121.175781 953.566406 C 118.566406 950.003906 113.984375 948.226563 107.421875 948.226563 C 100.863281 948.226563 96.238281 950.003906 93.550781 953.566406 C 91.417969 956.40625 90.347656 961.023438 90.347656 967.429688 L 90.347656 998.84375 L 78.019531 998.84375 L 78.019531 967.429688 C 78.019531 946.40625 87.824219 935.898438 107.421875 935.898438 C 126.945313 935.898438 136.707031 946.40625 136.707031 967.429688 Z M 210.484375 998.84375 L 181.203125 998.84375 C 161.601563 998.84375 151.796875 988.378906 151.796875 967.429688 C 151.796875 946.40625 161.601563 935.898438 181.203125 935.898438 C 200.726563 935.898438 210.484375 946.40625 210.484375 967.429688 L 210.484375 973.597656 L 164.484375 973.597656 C 165.753906 982.210938 171.320313 986.527344 181.203125 986.527344 L 210.484375 986.527344 Z M 197.796875 961.265625 C 196.539063 952.574219 191 948.226563 181.203125 948.226563 C 171.320313 948.226563 165.753906 952.574219 164.484375 961.265625 Z M 317.109375 979.640625 C 313.707031 992.453125 304.417969 998.84375 289.242188 998.84375 C 269.722656 998.84375 259.960938 988.347656 259.960938 967.308594 C 259.960938 946.363281 269.722656 935.898438 289.242188 935.898438 C 304.417969 935.898438 313.707031 942.304688 317.109375 955.101563 L 304.066406 955.101563 C 301.695313 950.511719 296.753906 948.226563 289.242188 948.226563 C 282.683594 948.226563 278.101563 949.972656 275.488281 953.445313 C 273.359375 956.285156 272.289063 960.902344 272.289063 967.308594 C 272.289063 973.714844 273.359375 978.347656 275.488281 981.191406 C 278.101563 984.738281 282.683594 986.527344 289.242188 986.527344 C 296.671875 986.527344 301.613281 984.226563 304.066406 979.640625 Z M 361.359375 998.84375 C 340.335938 998.84375 329.828125 991.265625 329.828125 976.078125 L 329.828125 911.234375 L 342.15625 911.234375 L 342.15625 976.078125 C 342.15625 979.324219 343.261719 981.730469 345.472656 983.324219 C 348.394531 985.460938 353.6875 986.527344 361.359375 986.527344 Z M 384.867188 923.566406 L 372.539063 923.566406 L 372.539063 911.238281 L 384.867188 911.238281 Z M 372.539063 935.898438 L 384.867188 935.898438 L 384.867188 998.84375 L 372.539063 998.84375 Z M 457.34375 979.640625 C 453.945313 992.453125 444.65625 998.84375 429.480469 998.84375 C 409.957031 998.84375 400.199219 988.347656 400.199219 967.308594 C 400.199219 946.363281 409.957031 935.898438 429.480469 935.898438 C 444.65625 935.898438 453.945313 942.304688 457.34375 955.101563 L 444.304688 955.101563 C 441.929688 950.511719 436.988281 948.226563 429.480469 948.226563 C 422.921875 948.226563 418.339844 949.972656 415.726563 953.445313 C 413.597656 956.285156 412.527344 960.902344 412.527344 967.308594 C 412.527344 973.714844 413.597656 978.347656 415.726563 981.191406 C 418.339844 984.738281 422.921875 986.527344 429.480469 986.527344 C 436.910156 986.527344 441.851563 984.226563 444.304688 979.640625 Z M 521.277344 998.84375 L 508.949219 998.84375 L 508.949219 992.675781 C 508.949219 986.285156 507.878906 981.65625 505.75 978.8125 C 503.136719 975.339844 498.554688 973.597656 491.996094 973.597656 L 481.914063 973.597656 L 481.914063 998.84375 L 469.589844 998.84375 L 469.589844 911.234375 L 481.914063 911.234375 L 481.914063 961.265625 L 491.285156 961.265625 C 497.84375 961.265625 502.425781 959.492188 505.035156 955.941406 C 507.171875 953.085938 508.238281 948.46875 508.238281 942.0625 L 508.238281 935.898438 L 520.566406 935.898438 L 520.566406 942.0625 C 520.566406 953.519531 517.558594 961.867188 511.554688 967.070313 C 518.035156 972.378906 521.277344 980.902344 521.277344 992.675781 Z M 550.597656 998.84375 L 538.144531 998.84375 L 538.144531 986.527344 L 550.597656 986.527344 Z M 579.328125 998.84375 L 566.875 998.84375 L 566.875 986.527344 L 579.328125 986.527344 Z M 696.855469 998.84375 L 684.519531 998.84375 L 684.519531 967.429688 C 684.519531 961.023438 683.460938 956.40625 681.324219 953.566406 C 678.640625 950.003906 674.015625 948.226563 667.457031 948.226563 C 660.894531 948.226563 656.308594 950.003906 653.703125 953.566406 C 651.5625 956.40625 650.496094 961.023438 650.496094 967.429688 L 650.496094 998.84375 L 638.171875 998.84375 L 638.171875 967.429688 C 638.171875 961.023438 637.101563 956.40625 634.972656 953.566406 C 632.28125 950.003906 627.65625 948.226563 621.097656 948.226563 C 614.539063 948.226563 609.953125 950.003906 607.34375 953.566406 C 605.214844 956.40625 604.144531 961.023438 604.144531 967.429688 L 604.144531 998.84375 L 591.8125 998.84375 L 591.8125 967.429688 C 591.8125 946.40625 601.574219 935.898438 621.097656 935.898438 C 631.535156 935.898438 639.28125 939.101563 644.335938 945.492188 C 649.316406 939.101563 657.019531 935.898438 667.457031 935.898438 C 687.058594 935.898438 696.855469 946.40625 696.855469 967.429688 Z M 763.164063 980 C 763.164063 992.558594 754.664063 998.84375 737.675781 998.84375 C 727.949219 998.84375 720.953125 996.601563 716.6875 992.089844 C 713.765625 988.933594 712.304688 984.902344 712.304688 980 C 712.304688 975.097656 713.765625 971.070313 716.6875 967.910156 C 720.953125 963.398438 727.949219 961.144531 737.675781 961.144531 C 743.441406 961.144531 747.277344 960.363281 749.175781 958.769531 C 750.285156 957.910156 750.832031 956.558594 750.832031 954.753906 C 750.832031 952.84375 750.285156 951.460938 749.175781 950.605469 C 747.277344 949.011719 743.441406 948.226563 737.675781 948.226563 C 731.984375 948.226563 728.1875 949.011719 726.296875 950.605469 C 725.1875 951.460938 724.632813 952.84375 724.632813 954.753906 L 712.304688 954.753906 C 712.304688 949.851563 713.765625 945.808594 716.6875 942.664063 C 720.953125 938.152344 727.949219 935.898438 737.675781 935.898438 C 754.664063 935.898438 763.164063 942.183594 763.164063 954.753906 Z M 750.832031 980 L 750.832031 971.699219 C 747.199219 972.964844 742.8125 973.597656 737.675781 973.597656 C 731.984375 973.597656 728.1875 974.347656 726.296875 975.851563 C 725.1875 976.722656 724.632813 978.105469 724.632813 980 C 724.632813 981.894531 725.1875 983.28125 726.296875 984.152344 C 728.1875 985.730469 731.984375 986.527344 737.675781 986.527344 C 743.441406 986.527344 747.277344 985.730469 749.175781 984.152344 C 750.285156 983.28125 750.832031 981.894531 750.832031 980 Z M 837.175781 998.84375 L 824.847656 998.84375 L 824.847656 967.429688 C 824.847656 961.023438 823.773438 956.40625 821.648438 953.566406 C 819.035156 950.003906 814.453125 948.226563 807.894531 948.226563 C 801.335938 948.226563 796.710938 950.003906 794.019531 953.566406 C 791.890625 956.40625 790.816406 961.023438 790.816406 967.429688 L 790.816406 998.84375 L 778.488281 998.84375 L 778.488281 967.429688 C 778.488281 946.40625 788.292969 935.898438 807.894531 935.898438 C 827.417969 935.898438 837.175781 946.40625 837.175781 967.429688 Z M 911.546875 1000.632813 C 911.546875 1015.957031 901.75 1023.625 882.144531 1023.625 L 859.03125 1023.625 L 859.03125 1011.292969 L 882.144531 1011.292969 C 889.574219 1011.292969 894.554688 1009.984375 897.085938 1007.382813 C 898.503906 1005.957031 899.21875 1003.714844 899.21875 1000.632813 L 899.21875 998.84375 L 882.144531 998.84375 C 862.625 998.84375 852.867188 988.378906 852.867188 967.429688 L 852.867188 935.898438 L 865.195313 935.898438 L 865.195313 967.429688 C 865.195313 973.835938 866.257813 978.453125 868.394531 981.308594 C 871.003906 984.78125 875.589844 986.527344 882.144531 986.527344 L 899.21875 986.527344 L 899.21875 935.898438 L 911.546875 935.898438 Z M 1066.769531 998.84375 L 1054.441406 998.84375 L 1054.441406 967.429688 C 1054.441406 961.023438 1053.371094 956.40625 1051.238281 953.566406 C 1048.558594 950.003906 1043.929688 948.226563 1037.371094 948.226563 C 1030.820313 948.226563 1026.230469 950.003906 1023.621094 953.566406 C 1021.480469 956.40625 1020.421875 961.023438 1020.421875 967.429688 L 1020.421875 998.84375 L 1008.089844 998.84375 L 1008.089844 967.429688 C 1008.089844 961.023438 1007.019531 956.40625 1004.890625 953.566406 C 1002.199219 950.003906 997.574219 948.226563 991.015625 948.226563 C 984.453125 948.226563 979.871094 950.003906 977.261719 953.566406 C 975.132813 956.40625 974.0625 961.023438 974.0625 967.429688 L 974.0625 998.84375 L 961.730469 998.84375 L 961.730469 967.429688 C 961.730469 946.40625 971.492188 935.898438 991.015625 935.898438 C 1001.449219 935.898438 1009.199219 939.101563 1014.25 945.492188 C 1019.230469 939.101563 1026.941406 935.898438 1037.371094 935.898438 C 1056.980469 935.898438 1066.769531 946.40625 1066.769531 967.429688 Z M 1140.539063 998.84375 L 1111.269531 998.84375 C 1091.671875 998.84375 1081.871094 988.378906 1081.871094 967.429688 C 1081.871094 946.40625 1091.671875 935.898438 1111.269531 935.898438 C 1130.789063 935.898438 1140.539063 946.40625 1140.539063 967.429688 L 1140.539063 973.597656 L 1094.550781 973.597656 C 1095.808594 982.210938 1101.390625 986.527344 1111.269531 986.527344 L 1140.539063 986.527344 Z M 1127.871094 961.265625 C 1126.601563 952.574219 1121.070313 948.226563 1111.269531 948.226563 C 1101.390625 948.226563 1095.808594 952.574219 1094.550781 961.265625 Z M 1261.640625 998.84375 L 1249.308594 998.84375 L 1249.308594 967.429688 C 1249.308594 961.023438 1248.238281 956.40625 1246.109375 953.566406 C 1243.410156 950.003906 1238.800781 948.226563 1232.230469 948.226563 C 1225.671875 948.226563 1221.078125 950.003906 1218.480469 953.566406 C 1216.351563 956.40625 1215.28125 961.023438 1215.28125 967.429688 L 1215.28125 998.84375 L 1202.949219 998.84375 L 1202.949219 967.429688 C 1202.949219 961.023438 1201.878906 956.40625 1199.75 953.566406 C 1197.050781 950.003906 1192.441406 948.226563 1185.871094 948.226563 C 1179.308594 948.226563 1174.738281 950.003906 1172.121094 953.566406 C 1169.988281 956.40625 1168.921875 961.023438 1168.921875 967.429688 L 1168.921875 998.84375 L 1156.589844 998.84375 L 1156.589844 967.429688 C 1156.589844 946.40625 1166.351563 935.898438 1185.871094 935.898438 C 1196.320313 935.898438 1204.058594 939.101563 1209.109375 945.492188 C 1214.089844 939.101563 1221.789063 935.898438 1232.230469 935.898438 C 1251.828125 935.898438 1261.640625 946.40625 1261.640625 967.429688 Z M 1334.699219 967.429688 C 1334.699219 988.378906 1324.929688 998.84375 1305.410156 998.84375 C 1285.820313 998.84375 1276.011719 988.378906 1276.011719 967.429688 C 1276.011719 946.40625 1285.820313 935.898438 1305.410156 935.898438 C 1324.929688 935.898438 1334.699219 946.40625 1334.699219 967.429688 Z M 1322.371094 967.429688 C 1322.371094 961.023438 1321.308594 956.40625 1319.171875 953.566406 C 1316.550781 950.003906 1311.96875 948.226563 1305.410156 948.226563 C 1298.859375 948.226563 1294.269531 950.003906 1291.671875 953.566406 C 1289.519531 956.40625 1288.46875 961.023438 1288.46875 967.429688 C 1288.46875 973.835938 1289.519531 978.453125 1291.671875 981.308594 C 1294.269531 984.78125 1298.859375 986.527344 1305.410156 986.527344 C 1311.96875 986.527344 1316.550781 984.78125 1319.171875 981.308594 C 1321.308594 978.453125 1322.371094 973.835938 1322.371094 967.429688 Z M 1381.800781 948.226563 C 1374.128906 948.226563 1368.839844 949.296875 1365.921875 951.429688 C 1363.789063 953.007813 1362.71875 955.460938 1362.71875 958.769531 L 1362.71875 998.84375 L 1350.390625 998.84375 L 1350.390625 958.769531 C 1350.390625 943.519531 1360.851563 935.898438 1381.800781 935.898438 Z M 1407.441406 923.566406 L 1395.109375 923.566406 L 1395.109375 911.238281 L 1407.441406 911.238281 Z M 1395.109375 935.898438 L 1407.441406 935.898438 L 1407.441406 998.84375 L 1395.109375 998.84375 Z M 1481.230469 998.84375 L 1451.929688 998.84375 C 1432.339844 998.84375 1422.539063 988.378906 1422.539063 967.429688 C 1422.539063 946.40625 1432.339844 935.898438 1451.929688 935.898438 C 1471.46875 935.898438 1481.230469 946.40625 1481.230469 967.429688 L 1481.230469 973.597656 L 1435.230469 973.597656 C 1436.488281 982.210938 1442.058594 986.527344 1451.929688 986.527344 L 1481.230469 986.527344 Z M 1468.539063 961.265625 C 1467.269531 952.574219 1461.738281 948.226563 1451.929688 948.226563 C 1442.058594 948.226563 1436.488281 952.574219 1435.230469 961.265625 Z M 1547.890625 954.753906 L 1535.558594 954.753906 C 1535.558594 952.84375 1535 951.460938 1533.898438 950.605469 C 1531.988281 949.011719 1528.199219 948.226563 1522.519531 948.226563 C 1516.820313 948.226563 1513.03125 949.011719 1511.140625 950.605469 C 1510.019531 951.460938 1509.480469 952.84375 1509.480469 954.753906 C 1509.480469 957.113281 1510.25 958.695313 1511.78125 959.492188 C 1513.328125 960.273438 1517.058594 960.875 1522.988281 961.265625 C 1530.191406 961.746094 1535.511719 962.800781 1539 964.46875 C 1544.921875 967.476563 1547.890625 972.691406 1547.890625 980.121094 C 1547.890625 992.675781 1539.421875 998.964844 1522.519531 998.964844 C 1505.601563 998.964844 1497.148438 992.675781 1497.148438 980.121094 L 1509.480469 980.121094 C 1509.480469 982.015625 1510.019531 983.398438 1511.140625 984.273438 C 1513.03125 985.851563 1516.820313 986.632813 1522.519531 986.632813 C 1528.199219 986.632813 1531.988281 985.851563 1533.898438 984.273438 C 1535 983.398438 1535.558594 982.015625 1535.558594 980.121094 C 1535.558594 977.820313 1534.851563 976.285156 1533.421875 975.488281 C 1531.769531 974.617188 1528.011719 973.984375 1522.160156 973.597656 C 1514.898438 973.113281 1509.558594 972.0625 1506.160156 970.394531 C 1500.140625 967.476563 1497.148438 962.257813 1497.148438 954.753906 C 1497.148438 942.183594 1505.601563 935.898438 1522.519531 935.898438 C 1539.421875 935.898438 1547.890625 942.183594 1547.890625 954.753906 Z M 1575.070313 998.84375 L 1562.621094 998.84375 L 1562.621094 986.527344 L 1575.070313 986.527344 Z M 1603.808594 998.84375 L 1591.359375 998.84375 L 1591.359375 986.527344 L 1603.808594 986.527344 Z M 1632.53125 998.84375 L 1620.078125 998.84375 L 1620.078125 986.527344 L 1632.53125 986.527344 Z M 1632.53125 998.84375 "/>
<path style=" stroke:none;fill-rule:evenodd;fill:rgb(0%,61.914063%,87.889099%);fill-opacity:1;" d="M 2043.398438 36.710938 C 2041.25 14.988281 2019.011719 2.460938 1993.640625 0.808594 C 1975.058594 -0.03125 1956.410156 2.941406 1938.480469 7.789063 C 1936.441406 8.339844 1917.238281 15.441406 1914.601563 15.980469 C 1965.148438 5.988281 1992.011719 13.398438 1998.738281 14.640625 C 2007.828125 16.160156 2023.410156 24.699219 2024.691406 36.578125 C 2025.328125 40.808594 2024.089844 50.691406 2023.019531 53.558594 C 2027.53125 56.058594 2032.898438 58.140625 2038.589844 61.339844 C 2056.539063 43.410156 2091.011719 25.359375 2118.480469 44.769531 L 2119.039063 44.460938 C 2097.789063 26.890625 2083.96875 22.621094 2067.898438 25.839844 C 2059.28125 27.570313 2050.898438 31.21875 2043.398438 36.710938 Z M 2043.398438 36.710938 "/>
<path style=" stroke:none;fill-rule:evenodd;fill:rgb(0%,61.914063%,87.889099%);fill-opacity:1;" d="M 2114.5 173.316406 C 2110.359375 131.234375 2067.25 106.992188 2018.148438 103.8125 C 1982.128906 102.152344 1945.988281 107.894531 1911.308594 117.3125 C 1907.328125 118.394531 1870.148438 132.136719 1864.988281 133.15625 C 1962.929688 113.8125 2014.988281 128.175781 2027.988281 130.574219 C 2045.628906 133.515625 2075.769531 150.074219 2078.25 173.097656 C 2079.488281 181.277344 2077.109375 200.398438 2075.03125 205.957031 C 2083.78125 210.796875 2094.160156 214.839844 2105.199219 221.039063 C 2139.960938 186.296875 2206.71875 151.335938 2259.941406 188.957031 L 2261.039063 188.355469 C 2219.878906 154.296875 2193.101563 146.035156 2161.980469 152.253906 C 2145.261719 155.617188 2129.058594 162.695313 2114.5 173.316406 Z M 2114.5 173.316406 "/>
<path style=" stroke:none;fill-rule:evenodd;fill:rgb(98.046875%,68.943787%,0%);fill-opacity:1;" d="M 2182.691406 433.171875 C 2182.691406 438.101563 2181.601563 446.628906 2179.398438 458.753906 C 2177.21875 470.863281 2174.648438 485.898438 2171.71875 503.859375 C 2168.800781 521.804688 2166.230469 542.347656 2164.050781 565.457031 C 2161.851563 588.5625 2160.738281 613.597656 2160.738281 640.523438 C 2160.738281 659.378906 2161.730469 675.523438 2163.691406 688.996094 C 2165.628906 702.46875 2167.941406 714.140625 2170.628906 723.992188 C 2173.308594 733.882813 2175.628906 742.066406 2177.578125 748.574219 C 2179.519531 755.082031 2180.511719 760.589844 2180.511719 765.0625 C 2180.511719 774.5 2176.828125 780.898438 2169.519531 784.261719 C 2162.21875 787.625 2155.871094 789.300781 2150.511719 789.300781 C 2137.339844 789.300781 2126.75 785.609375 2118.710938 778.207031 C 2110.660156 770.789063 2104.441406 761.027344 2100.058594 748.917969 C 2095.671875 736.792969 2092.75 722.882813 2091.269531 707.175781 C 2089.820313 691.46875 2089.089844 675.085938 2089.089844 658.03125 C 2089.089844 643.671875 2089.460938 629.980469 2090.179688 616.964844 C 2090.910156 603.945313 2091.769531 592.273438 2092.75 581.945313 C 2094.199219 570.273438 2095.671875 558.839844 2097.128906 547.621094 C 2097.621094 543.128906 2096.640625 540.875 2094.199219 540.875 C 2092.75 540.875 2091.039063 541.785156 2089.089844 543.566406 L 2086.890625 545.601563 C 2074.710938 563.546875 2063.621094 577.128906 2053.621094 586.328125 C 2043.621094 595.527344 2034.96875 602.363281 2027.660156 606.855469 C 2018.878906 611.800781 2011.078125 614.710938 2004.261719 615.617188 C 1994.988281 615.617188 1986.699219 611.234375 1979.390625 602.492188 C 1972.078125 593.726563 1965.738281 583.964844 1960.371094 573.203125 C 1954.050781 560.640625 1948.429688 546.277344 1943.558594 530.113281 C 1942.101563 526.078125 1940.628906 524.058594 1939.171875 524.058594 C 1935.761719 524.058594 1932.699219 527.078125 1930.03125 533.148438 C 1927.339844 539.203125 1925.160156 546.820313 1923.449219 556.039063 C 1921.738281 565.238281 1920.160156 575.4375 1918.679688 586.65625 C 1917.230469 597.890625 1916.140625 608.546875 1915.410156 618.636719 C 1914.671875 628.742188 1914.191406 637.835938 1913.941406 645.90625 C 1913.699219 653.980469 1913.578125 659.597656 1913.578125 662.742188 C 1913.578125 670.8125 1913.578125 678.449219 1913.578125 685.632813 C 1913.578125 692.8125 1913.808594 698.867188 1914.300781 703.8125 C 1914.789063 709.648438 1915.28125 715.03125 1915.78125 719.957031 C 1916.25 727.59375 1914.671875 733.320313 1911.011719 737.136719 C 1907.359375 740.957031 1903.578125 743.972656 1899.691406 746.226563 C 1894.320313 748.464844 1888.699219 749.808594 1882.871094 750.265625 C 1878.46875 750.265625 1873.960938 749.355469 1869.320313 747.574219 C 1864.710938 745.773438 1860.429688 742.738281 1856.539063 738.484375 C 1852.628906 734.210938 1849.339844 728.484375 1846.671875 721.300781 C 1843.980469 714.140625 1842.628906 705.15625 1842.628906 694.378906 C 1842.628906 688.539063 1842.890625 677.214844 1843.359375 660.378906 C 1843.851563 643.5625 1845.320313 624.253906 1847.761719 602.492188 C 1850.199219 580.710938 1853.621094 557.820313 1858 533.820313 C 1862.378906 509.804688 1868.71875 487.808594 1877.011719 467.84375 C 1885.300781 447.863281 1895.539063 431.371094 1907.71875 418.355469 C 1919.921875 405.339844 1934.769531 398.828125 1952.339844 398.828125 C 1955.761719 398.828125 1959.28125 399.503906 1962.941406 400.847656 C 1966.589844 402.191406 1968.921875 405.339844 1969.878906 410.285156 C 1975.238281 432.71875 1980.839844 452.679688 1986.699219 470.1875 C 1991.570313 485.460938 1997.191406 499.261719 2003.519531 511.585938 C 2009.859375 523.933594 2015.949219 530.113281 2021.808594 530.113281 C 2022.300781 530.113281 2024.371094 529.550781 2028.019531 528.421875 C 2031.679688 527.3125 2037.171875 523.367188 2044.480469 516.640625 C 2051.789063 509.914063 2061.058594 499.023438 2072.28125 483.988281 C 2083.480469 468.953125 2096.398438 447.535156 2111.019531 419.699219 C 2112.488281 416.121094 2114.441406 412.738281 2116.871094 409.609375 C 2119.308594 407.355469 2122.359375 405.121094 2126.019531 402.867188 C 2129.671875 400.628906 2134.179688 399.503906 2139.539063 399.503906 C 2142.46875 399.503906 2146.378906 399.957031 2151.25 400.847656 C 2156.128906 401.738281 2160.871094 403.539063 2165.511719 406.230469 C 2170.140625 408.9375 2174.160156 412.410156 2177.578125 416.664063 C 2181 420.9375 2182.691406 426.429688 2182.691406 433.171875 Z M 2419.640625 589.347656 C 2419.640625 596.089844 2419.019531 603.273438 2417.800781 610.910156 C 2416.578125 618.527344 2415.128906 627.726563 2413.421875 638.507813 C 2411.710938 649.269531 2410.238281 662.179688 2409.019531 677.214844 C 2407.800781 692.25 2407.199219 710.320313 2407.199219 731.410156 C 2407.199219 773.609375 2402.441406 810.859375 2392.949219 843.167969 C 2380.550781 885.3125 2372.621094 918.238281 2334.441406 945.707031 C 2318.839844 956.925781 2304.949219 962.523438 2292.769531 962.523438 C 2288.859375 962.523438 2285.941406 961.960938 2283.988281 960.851563 C 2282.050781 959.726563 2280.570313 958.269531 2279.609375 956.472656 C 2278.140625 954.6875 2277.410156 952.433594 2277.410156 949.742188 C 2277.410156 946.597656 2278.261719 943.34375 2279.96875 939.980469 C 2281.679688 936.617188 2283.75 933.582031 2286.191406 930.890625 C 2288.628906 927.746094 2291.789063 924.601563 2295.699219 921.472656 C 2327.859375 891.074219 2333.640625 859.039063 2342.839844 818.261719 C 2348.210938 794.460938 2351.621094 771.917969 2353.078125 750.59375 C 2354.550781 729.285156 2355.28125 711.886719 2355.28125 698.414063 C 2355.28125 695.722656 2354.789063 694.378906 2353.820313 694.378906 C 2353.328125 694.378906 2352.589844 694.832031 2351.621094 695.722656 L 2350.898438 696.394531 C 2341.128906 713.449219 2331.640625 726.355469 2322.371094 735.121094 C 2313.101563 743.863281 2304.570313 750.484375 2296.769531 754.972656 C 2287.988281 759.898438 2279.460938 762.828125 2271.171875 763.71875 C 2258.5 763.71875 2248.269531 759.574219 2240.46875 751.265625 C 2232.671875 742.972656 2226.320313 732.648438 2221.449219 720.300781 C 2216.578125 707.957031 2213.289063 694.722656 2211.578125 680.578125 C 2209.871094 666.449219 2209.011719 653.542969 2209.011719 641.871094 C 2209.011719 605.507813 2214.269531 577.128906 2224.738281 556.710938 C 2235.230469 536.277344 2249.480469 526.078125 2267.519531 526.078125 C 2268.5 526.078125 2270.210938 526.1875 2272.648438 526.402344 C 2275.078125 526.640625 2277.390625 527.3125 2279.589844 528.421875 C 2281.789063 529.550781 2283.738281 531.351563 2285.449219 533.820313 C 2287.148438 536.277344 2287.988281 539.765625 2287.988281 544.238281 C 2287.988281 549.183594 2286.300781 555.019531 2282.878906 561.746094 C 2278.96875 569.839844 2275.570313 578.582031 2272.648438 588 C 2270.210938 596.089844 2267.878906 605.617188 2265.699219 616.617188 C 2263.5 627.617188 2262.410156 639.179688 2262.410156 651.289063 C 2262.410156 653.980469 2262.519531 658.253906 2262.769531 664.085938 C 2263.011719 669.921875 2263.738281 675.867188 2264.96875 681.921875 C 2266.191406 687.996094 2268.140625 693.269531 2270.808594 697.738281 C 2273.5 702.230469 2277.261719 704.484375 2282.148438 704.484375 C 2285.570313 704.484375 2289.589844 703.25 2294.210938 700.777344 C 2298.839844 698.304688 2304.339844 693.269531 2310.660156 685.632813 C 2317.011719 677.996094 2324.078125 667.234375 2331.878906 653.304688 C 2339.679688 639.398438 2348.699219 621.21875 2358.929688 598.78125 C 2361.371094 592.054688 2364.53125 586.21875 2368.441406 581.273438 C 2371.859375 576.78125 2376.128906 572.636719 2381.238281 568.820313 C 2386.371094 565.003906 2392.570313 563.09375 2399.890625 563.09375 C 2401.351563 563.09375 2403.289063 563.328125 2405.730469 563.765625 C 2408.179688 564.21875 2410.371094 565.238281 2412.328125 566.800781 C 2414.269531 568.367188 2415.96875 570.945313 2417.441406 574.546875 C 2418.910156 578.128906 2419.640625 583.074219 2419.640625 589.347656 Z M 2419.640625 589.347656 "/>
<g clip-path="url(#clip2)" clip-rule="nonzero">
<path style=" stroke:none;fill-rule:evenodd;fill:rgb(6.272888%,16.479492%,51.367188%);fill-opacity:1;" d="M 3490.21875 591.308594 L 3490.21875 512.960938 L 3462.230469 512.960938 L 3462.230469 496.984375 L 3537.199219 496.984375 L 3537.199219 512.960938 L 3509.28125 512.960938 L 3509.28125 591.308594 Z M 3549.238281 591.308594 L 3549.238281 496.984375 L 3577.730469 496.984375 L 3594.851563 561.347656 L 3611.761719 496.984375 L 3640.328125 496.984375 L 3640.328125 591.308594 L 3622.640625 591.308594 L 3622.640625 517.050781 L 3603.910156 591.308594 L 3585.578125 591.308594 L 3566.910156 517.050781 L 3566.910156 591.308594 Z M 3549.238281 591.308594 "/>
</g>
</g>
</svg>
